<svg id="Слой_1" data-name="Слой 1" xmlns="http://www.w3.org/2000/svg" xmlns:xlink="http://www.w3.org/1999/xlink" viewBox="0 0 291.78 201.81"><defs><style>.cls-1{fill:red;}.cls-2{fill:#1d1d1d;}.cls-3{fill:url(#Безымянный_градиент_5);}.cls-4{fill:url(#Безымянный_градиент_6);}</style><linearGradient id="Безымянный_градиент_5" x1="121.18" y1="138.37" x2="130.54" y2="138.37" gradientUnits="userSpaceOnUse"><stop offset="0" stop-color="red"/><stop offset="1" stop-color="#42210b"/></linearGradient><linearGradient id="Безымянный_градиент_6" x1="0" y1="71.55" x2="169.23" y2="71.55" xlink:href="#Безымянный_градиент_5"/></defs><path class="cls-1" d="M16.07,189.4v-7.13H30.28V197.1a15.2,15.2,0,0,1-5.68,3.43,20,20,0,0,1-6.77,1.28q-8.41,0-13.12-4.66T0,184.6a17.3,17.3,0,0,1,4.61-12.29q4.6-4.92,12.27-4.92a17,17,0,0,1,10.88,3.47L24.58,177a7.58,7.58,0,0,0-2.93-1.76,11,11,0,0,0-3.87-.72,9.72,9.72,0,0,0-7,2.57C9,178.8,8.08,181.31,8.08,184.6A10,10,0,0,0,10.77,192a9.57,9.57,0,0,0,7.15,2.73,9.17,9.17,0,0,0,3-.55A6.45,6.45,0,0,0,23.15,193V189.4Z"/><path class="cls-1" d="M48.82,201.24V168H68.55v7.13H56.43v5.85H67.12v7.13H56.43v6H69v7.13Z"/><path class="cls-1" d="M84.24,175.09V168h27.57v7.13h-10v26.15H94.22V175.09Z"/><path class="cls-2" d="M121.6,201.24,135.43,168h6.8l13.84,33.28h-8.13l-2.76-7H132l-2.76,7Zm17-23.53-3.76,9.41h7.47Z"/><path class="cls-2" d="M199.84,168V187.5q0,7.19-3.87,10.75a13.82,13.82,0,0,1-9.72,3.56q-6.62,0-10.55-3.76t-3.95-10.88V168h7.61v17.59q0,9.13,6.89,9.13,3.28,0,4.63-2.21a12.5,12.5,0,0,0,1.36-6.49V168Z"/><path class="cls-2" d="M216,175.09V168h27.57v7.13h-10v26.15H226V175.09Z"/><path class="cls-2" d="M256.41,184.6a16.68,16.68,0,0,1,4.92-12.29q4.92-4.92,12.77-4.92a17.73,17.73,0,0,1,12.71,4.71q5,4.71,5,12.5a16.45,16.45,0,0,1-5,12.36,17.52,17.52,0,0,1-12.67,4.85,17.73,17.73,0,0,1-12.72-4.71Q256.41,192.41,256.41,184.6Zm8.08,0a9.93,9.93,0,0,0,2.81,7.18,9.11,9.11,0,0,0,6.8,2.9,9,9,0,0,0,7.08-2.83,10.48,10.48,0,0,0,2.52-7.25,9.92,9.92,0,0,0-2.76-7.27,9.84,9.84,0,0,0-13.74,0A10.06,10.06,0,0,0,264.49,184.6Z"/><circle class="cls-2" cx="181.29" cy="4.73" r="4.68"/><circle class="cls-3" cx="125.86" cy="138.37" r="4.68"/><path class="cls-2" d="M291.71,136.14,272.8,13.53A16,16,0,0,0,257,0H195a4.74,4.74,0,0,0-4.59,3.79,5,5,0,0,0,0,1.88A4.72,4.72,0,0,0,195,9.45H228.2A3.62,3.62,0,0,1,231.88,13a3.62,3.62,0,0,1-3.68,3.55H187.65a3.55,3.55,0,0,0-.09,7.09h14.78c1.77.89,0,3,0,3l-29.21,50a3.45,3.45,0,0,0,3,5.19h19A4,4,0,0,1,199,84.46a3.93,3.93,0,0,1-3.72,5.19H169.73a7.31,7.31,0,0,0-6.32,3.63L139.62,134a6,6,0,0,0,5.18,9h35a4.18,4.18,0,0,0,3.51-1.89l7.37-11.22a5.36,5.36,0,0,1,4.47-2.41H251.4v0a3.83,3.83,0,0,1,0,7.65v0H227.51a3.92,3.92,0,1,0,0,7.83h58.27A6,6,0,0,0,291.71,136.14ZM212.89,88l21.48-39.43a1.11,1.11,0,0,1,2.09.39l4.93,39.44a1.12,1.12,0,0,1-1.11,1.25H213.87A1.11,1.11,0,0,1,212.89,88Z"/><path class="cls-4" d="M162.85.05H88.77c-.51,0-1,0-1.51.05v0H34.36a4.14,4.14,0,1,0,0,8.27H83.42a3.85,3.85,0,0,1,0,7.69H40.12a4.13,4.13,0,0,0-.32,8.24l0,0H59a2.81,2.81,0,1,1,0,5.61H25.71a4.14,4.14,0,0,0,0,8.28h6c-.39.94-.76,1.9-1.11,2.87L24,59.75l-.33.91L21,68,15.45,83.69H33.56a3.7,3.7,0,0,1,0,7.39H4.14a4.14,4.14,0,1,0,0,8.28H9.87l-1.14,3.18A30.33,30.33,0,0,0,37.3,143.05h76a4.18,4.18,0,0,0,4.2-3.36,4,4,0,0,0-4-4.72H76.07a3.72,3.72,0,0,1,0-7.43h34a17.94,17.94,0,0,0,16.63-11.2L148.22,63h-28a19.33,19.33,0,0,0-18,12.15L94.51,94.49a16.48,16.48,0,0,1-15.29,10.35H58.59a5.86,5.86,0,0,1-5.45-8L71.8,49.66a17.48,17.48,0,0,1,16.25-11h62.32a9.68,9.68,0,0,0,9-6.12l9.4-23.72A6.38,6.38,0,0,0,162.85.05Z"/></svg>