<svg display="none" version="1.1" xmlns="http://www.w3.org/2000/svg" xmlns:xlink="http://www.w3.org/1999/xlink">
<defs>
<symbol id="icon-cross" viewBox="0 0 16 16">
	<title>cross</title>
	<path d="M15.6,16.4L8,8.7l-7.6,7.6l-0.7-0.7L7.3,8l-7.6-7.6l0.7-0.7L8,7.3l7.6-7.6l0.7,0.7L8.7,8l7.6,7.6L15.6,16.4z"></path>
</symbol>
<symbol id="icon-cross-thick" viewBox="0 0 24 24">
	<title>cross</title>
	<path d="M22.245 4.015c.313.313.313.826 0 1.139l-6.276 6.27c-.313.312-.313.826 0 1.14l6.273 6.272c.313.313.313.826 0 1.14l-2.285 2.277c-.314.312-.828.312-1.142 0l-6.271-6.271c-.313-.313-.828-.313-1.141 0l-6.276 6.267c-.313.313-.828.313-1.141 0l-2.282-2.28c-.313-.313-.313-.826 0-1.14l6.278-6.269c.313-.312.313-.826 0-1.14L1.709 5.147c-.314-.313-.314-.827 0-1.14l2.284-2.278c.315-.312.828-.312 1.142.001L11.405 8c.314.314.828.314 1.141.001l6.276-6.267c.312-.312.826-.312 1.141 0l2.282 2.281z"/>
</symbol>
<symbol id="icon-calendar" viewBox="0 0 1024 1024">
	<title>calendar</title>
	<path d="M864 992h-704c-35.328 0-64-28.672-64-64v-704c0-35.36 28.672-64 64-64h64v32c0 53.024 42.976 96 96 96 52.992 0 96-42.976 96-96v-32h192v32c0 53.024 43.008 96 96 96s96-42.976 96-96v-32h64c35.328 0 64 28.64 64 64v704c0 35.328-28.672 64-64 64zM864 384h-704v544h704v-544zM320 544h-96v-96h96v96zM320 704h-96v-96h96v96zM320 864h-96v-96h96v96zM480 544h-96v-96h96v96zM480 704h-96v-96h96v96zM480 864h-96v-96h96v96zM640 544h-96v-96h96v96zM640 704h-96v-96h96v96zM640 864h-96v-96h96v96zM800 544h-96v-96h96v96zM800 704h-96v-96h96v96zM800 864h-96v-96h96v96zM703.008 256c-34.816 0-63.008-28.224-63.008-63.008v-65.984c0-34.816 28.192-63.008 63.008-63.008s63.008 28.192 63.008 63.008v65.984c0 34.784-28.192 63.008-63.008 63.008zM319.008 256c-34.816 0-63.008-28.224-63.008-63.008v-65.984c0-34.816 28.192-63.008 63.008-63.008s63.008 28.192 63.008 63.008v65.984c0 34.784-28.224 63.008-63.008 63.008z"></path>
</symbol>
<symbol id="icon-check" viewBox="0 0 1024 1024">
	<title>check</title>
	<path d="M954.857 323.429q0 22.857-16 38.857l-491.429 491.429q-16 16-38.857 16t-38.857-16l-284.571-284.571q-16-16-16-38.857t16-38.857l77.714-77.714q16-16 38.857-16t38.857 16l168 168.571 374.857-375.429q16-16 38.857-16t38.857 16l77.714 77.714q16 16 16 38.857z"></path>
</symbol>
<symbol id="icon-check-02" viewBox="0 0 512 441.81">
	<title>check</title>
	<path d="M498.82 0C343.07 95.49 230.05 216 179.27 276.43L54.92 179 0 223.27l214.88 218.54C251.86 347.08 369 161.94 512 30.4z"/>
</symbol>
<symbol id="icon-cart-01" viewBox="0 0 57.7 61.4">
	<title>cart</title>
	<path d="M41.4 61.4H0l4.3-45.8h41.4zm-39.2-2h37.4l3.9-41.8H6.1z"></path>
	<path d="M57.7 61.4H39.4l4.3-45.8H52zm-16.1-2h13.9l-5.3-41.8h-4.7zM40.5 17a.94.94 0 0 1-1-1V9.3c0-.3-.1-7-6.1-7.3h-2.2a.94.94 0 0 1-1-1 .94.94 0 0 1 1-1h2.3c6.4.3 8 6.2 8 9.3V16a1 1 0 0 1-1 1z"></path>
	<path d="M24.5 17a.94.94 0 0 1-1-1V9.3c0-3.1 1.7-9 8-9.3a1 1 0 0 1 1 1 .94.94 0 0 1-1 1c-6 .3-6.1 7-6.1 7.3V16a.87.87 0 0 1-.9 1z"></path>
	<path d="M32.5 17a.94.94 0 0 1-1-1V9.3c0-.3-.1-7-6.1-7.3h-2.2a.94.94 0 0 1-1-1 .94.94 0 0 1 1-1h2.3c6.4.3 8 6.2 8 9.3V16a1 1 0 0 1-1 1z"></path>
	<path d="M16.5 17a.94.94 0 0 1-1-1V9.3c0-3.1 1.7-9 8-9.3a1 1 0 0 1 1 1 .94.94 0 0 1-1 1c-6 .3-6.1 7-6.1 7.3V16a.87.87 0 0 1-.9 1zM32.5 23.6a.94.94 0 0 1-1-1V9.3a1 1 0 0 1 2 0v13.3a1.08 1.08 0 0 1-1 1z"></path>
	<path d="M16.5 23.6a.94.94 0 0 1-1-1V9.3a1 1 0 0 1 2 0v13.3a1.08 1.08 0 0 1-1 1z"></path>
</symbol>
<symbol id="icon-cart-02" viewBox="0 0 37.95 37.67">
	<title>cart</title>
	<path d="M13.31.01H9.88V0H0v2.66l10.65.01v27.7h27.29v-8.2H18.45v-2.88h19.5l-.01-8.18H15.82v2.66h19.47v2.86h-19.5v8.21h19.5v2.87H13.31V2.67h-.46l.46-.01V.01M21.63 32.64a2.83 2.83 0 0 0-2.08-.86 2.94 2.94 0 0 0-3 2.95 2.8 2.8 0 0 0 .87 2.07 2.84 2.84 0 0 0 2.08.87 3 3 0 0 0 2.94-2.94 2.83 2.83 0 0 0-.87-2.09zM34 32.64a2.84 2.84 0 0 0-2.08-.86 2.87 2.87 0 0 0-2.08.86 2.83 2.83 0 0 0-.87 2.09 2.79 2.79 0 0 0 .87 2.07 2.84 2.84 0 0 0 2.08.87 3 3 0 0 0 2.95-2.94 2.84 2.84 0 0 0-.87-2.09z"></path>
</symbol>
<symbol id="icon-cart-03" viewBox="0 0 90.12 79.5">
	<title>cart</title>
	<path d="M88.5 9a7.52 7.52 0 0 0-5.6-3H14.5c-1.2-4-4.7-6-8.8-6H0v6h5.7A3.53 3.53 0 0 1 9 9.6v36.3a10 10 0 0 0-5.9 9A10.14 10.14 0 0 0 13.5 65h2.1a17.16 17.16 0 0 0-.9 4.4 10.1 10.1 0 0 0 9.9 10.1 10.18 10.18 0 0 0 9.9-10.2 13.74 13.74 0 0 0-.9-4.3h27.6a17.16 17.16 0 0 0-.9 4.4 10.1 10.1 0 0 0 9.9 10.1 10.21 10.21 0 0 0 9.9-10.3c0-5.3-4.1-10.2-9.5-10.2H13.5A4.18 4.18 0 0 1 9 54.8c0-2.6 1.6-3.9 4.8-4.5l60.3-6.5a14.34 14.34 0 0 0 12.6-11.5L90 15.1A7.76 7.76 0 0 0 88.5 9zM28.7 69.7a4 4 0 1 1-4-4 4 4 0 0 1 4 4zm45.7 0a4 4 0 1 1-4-4 4 4 0 0 1 4 4zm9.8-55.5l-3.3 17.1a8.39 8.39 0 0 1-7.4 6.8l-58.4 6.4H15V12h67.9a1.41 1.41 0 0 1 1 .8 1.83 1.83 0 0 1 .3 1.4z"></path>
</symbol>
<symbol id="icon-cart-04" viewBox="0 0 489 489">
	<title>cart</title>
	<path d="M440.1,422.7l-28-315.3c-0.6-7-6.5-12.3-13.4-12.3h-57.6C340.3,42.5,297.3,0,244.5,0s-95.8,42.5-96.6,95.1H90.3 c-7,0-12.8,5.3-13.4,12.3l-28,315.3c0,0.4-0.1,0.8-0.1,1.2c0,35.9,32.9,65.1,73.4,65.1h244.6c40.5,0,73.4-29.2,73.4-65.1 C440.2,423.5,440.2,423.1,440.1,422.7z M244.5,27c37.9,0,68.8,30.4,69.6,68.1H174.9C175.7,57.4,206.6,27,244.5,27z M366.8,462 H122.2c-25.4,0-46-16.8-46.4-37.5l26.8-302.3h45.2v41c0,7.5,6,13.5,13.5,13.5s13.5-6,13.5-13.5v-41h139.3v41 c0,7.5,6,13.5,13.5,13.5s13.5-6,13.5-13.5v-41h45.2l26.9,302.3C412.8,445.2,392.1,462,366.8,462z"/>
</symbol>
<symbol id="icon-cart-old" viewBox="0 0 20 17">
	<title>cart</title>
	<path d="M20 4.2V3H5.2l-.8-3H0v1h3.6L7 13.3c-.6.3-1 1-1 1.7 0 1.1.9 2 2 2s2-.9 2-2c0-.4-.1-.7-.3-1h4.6c-.2.3-.3.6-.3 1 0 1.1.9 2 2 2s2-.9 2-2c0-.7-.4-1.4-1-1.7V13H8l-.6-2h10L20 4.2zM18.2 6h-2.5l.6-2H19l-.8 2zM11 7v3H9.4L9 7h2zM8.9 6l-.3-2H11v2H8.9zM12 7h2.4l-.8 3H12V7zm0-1V4h3.2l-.6 2H12zM7.5 4l.3 2H6.1l-.6-2h2zM9 15c0 .6-.4 1-1 1s-1-.4-1-1 .4-1 1-1 1 .4 1 1zm7 1c-.6 0-1-.4-1-1s.4-1 1-1 1 .4 1 1-.4 1-1 1zM6.3 7H8l.4 3H7.2l-.9-3zm8.3 3l.8-3h2.4l-1.1 3h-2.1z"></path>
</symbol>
<symbol id="icon-mobile-cart" viewBox="0 0 100 100">
	<title>cart</title>
	<path d="M0 0v10h10v60h90V10H90v50H20V0H0"/>
	<circle cx="80" cy="90" r="10"/>
	<circle cx="30" cy="90" r="10"/>
</symbol>
<symbol id="icon-left-pointer" viewBox="0 0 20 16">
	<title>left-arrow</title>
	<path d="m8,0q0.414,0 0.707,0.293t0.293,0.707q0,0.422 -0.297,0.711l-5.289,5.289l15.586,0q0.414,0 0.707001,0.293t0.292999,0.707t-0.292999,0.707t-0.707001,0.293l-15.586,0l5.289,5.289q0.297,0.289 0.297,0.711q0,0.414 -0.293,0.707001t-0.707,0.292999q-0.422,0 -0.711,-0.289l-7,-7q-0.289,-0.305 -0.289,-0.711t0.289,-0.711l7,-7q0.297001,-0.289 0.711,-0.289z"></path>
</symbol>
<symbol id="icon-right-pointer" viewBox="0 0 20 16">
	<title>right-arrow</title>
	<path d="m12.000001,0q0.422,0 0.711,0.289l7.000001,7q0.289,0.289001 0.289,0.711t-0.289,0.711l-7.000001,7q-0.289001,0.289 -0.711,0.289q-0.43,0 -0.715,-0.285t-0.285,-0.715q0,-0.422001 0.289,-0.711l5.297002,-5.289l-15.586001,0q-0.414,0 -0.707,-0.293t-0.293001,-0.707t0.293001,-0.707t0.707,-0.293l15.586001,0l-5.297002,-5.289q-0.289,-0.289 -0.289,-0.711q0,-0.43 0.285,-0.715t0.715,-0.285z"></path>
</symbol>
<symbol id="icon-left-arrow" viewBox="0 0 44 60">
	<title>left-arrow</title>
	<path d="M37 14v32L12 30l25-16zM0 30l44 30V0L0 30z"></path>
</symbol>
<symbol id="icon-right-arrow" viewBox="0 0 44 60">
	<title>right-arrow</title>
	<path d="M7 14v32l25-16L7 14zm37 16L0 60V0l44 30z"></path>
</symbol>
<symbol id="icon-down-half-arrow" viewBox="0 0 24 14.83">
	<title>down-arrow</title>
	<path d="M2.83 0L12 9.17 21.17 0 24 2.83l-12 12-12-12z"></path>
</symbol>
<symbol id="icon-up-half-arrow" viewBox="0 0 24 14.83">
	<title>up-arrow</title>
	<path d="M0,12L12,0,24,12l-2.83,2.83L12,5.66,2.83,14.83Z"></path>
</symbol>
<symbol id="icon-right-half-arrow" viewBox="0 0 14.83 24">
	<title>right-arrow</title>
	<path d="M0,21.17L9.17,12,0,2.83,2.83,0l12,12-12,12Z"></path>
</symbol>
<symbol id="icon-left-half-arrow" viewBox="0 0 14.83 24">
	<title>left-arrow</title>
	<path d="M14.83,2.83L5.66,12l9.17,9.17L12,24,0,12,12,0Z"></path>
</symbol>
<symbol id="icon-thin-right-arrow" viewBox="0 0 275.05 512.13">
	<title>right-arrow</title>
	<path d="M272.13 263.33a10.56 10.56 0 0 0-.3-14.9l-254-245.5a10.54 10.54 0 0 0-14.6 15.2l254 245.5a10.38 10.38 0 0 0 7.3 3 10 10 0 0 0 7.6-3.3z"/><path class="cls-1" d="M17.83 509.23l254-245.5a10.54 10.54 0 0 0-14.6-15.2L3.23 494a10.56 10.56 0 0 0-.3 14.9 10.63 10.63 0 0 0 14.9.33z"></path>
</symbol>
<symbol id="icon-thin-left-arrow" viewBox="0 0 275.05 512.13">
	<title>left-arrow</title>
	<path d="M10.53 266.63a10.38 10.38 0 0 0 7.3-3l254-245.5a10.54 10.54 0 0 0-14.6-15.2l-254 245.5a10.56 10.56 0 0 0-.3 14.9 10 10 0 0 0 7.6 3.3z"/><path class="cls-1" d="M264.53 512.13a10.68 10.68 0 0 0 7.6-3.2 10.56 10.56 0 0 0-.3-14.9l-254-245.5a10.54 10.54 0 0 0-14.6 15.2l254 245.5a10.72 10.72 0 0 0 7.3 2.9z"></path>
</symbol>
<symbol id="icon-star" viewBox="0 0 24 23">
	<title>star</title>
	<path d="M12,17.6L19.42,23l-2.84-8.72L24,9H14.9L12,0,9.1,9H0l7.42,5.28L4.59,23Z"/>
</symbol>
<symbol id="icon-arrows-group" viewBox="0 0 69 10">
	<title>arrows-group</title>
	<path d="M.3.4l7.1 4.2L.3 8.7M10.3.4l7.1 4.2-7.1 4.1M20.3.4l7.1 4.2-7.1 4.1M30.3.4l7.1 4.2-7.1 4.1M40.3.4l7.1 4.2-7.1 4.1M50.3.4l7.1 4.2-7.1 4.1M60.3.4l7.1 4.2-7.1 4.1"/>
</symbol>
<symbol id="icon-open" viewBox="7 -8 22 22">
	<title>open</title>
	<path d="M10-8h7c.3 0 .5.1.7.3.2.2.3.4.3.7s-.1.5-.3.7-.4.3-.7.3h-7c-.3 0-.5.1-.7.3S9-5.3 9-5v16c0 .3.1.5.3.7s.4.3.7.3h16c.3 0 .5-.1.7-.3s.3-.4.3-.7V4c0-.3.1-.5.3-.7s.4-.3.7-.3.5.1.7.3.3.4.3.7v7c0 .8-.3 1.5-.9 2.1-.6.6-1.3.9-2.1.9H10c-.8 0-1.5-.3-2.1-.9-.6-.6-.9-1.3-.9-2.1V-5c0-.8.3-1.5.9-2.1.6-.6 1.3-.9 2.1-.9zm12 0h6c.3 0 .5.1.7.3.2.2.3.4.3.7v6c0 .3-.1.5-.3.7s-.4.3-.7.3-.5-.1-.7-.3S27-.7 27-1v-3.6l-8.3 8.3c-.2.2-.4.3-.7.3-.3 0-.5-.1-.7-.3-.2-.2-.3-.4-.3-.7 0-.3.1-.5.3-.7L25.6-6H22c-.3 0-.5-.1-.7-.3S21-6.7 21-7s.1-.5.3-.7c.2-.2.4-.3.7-.3z"/>
</symbol>
<symbol id="icon-search" viewBox="0 0 22 22">
	<title>search</title>
	<path d="m9,0q1.828,0 3.496,0.715t2.871,1.918t1.917999,2.871t0.715,3.496q0,1.57 -0.511999,3.008t-1.457001,2.608999l5.68,5.672q0.289,0.289 0.289,0.711q0,0.43 -0.285,0.715t-0.715,0.285q-0.422001,0 -0.711,-0.289l-5.672,-5.68q-1.172,0.945 -2.608999,1.457001t-3.008,0.511999q-1.828,0 -3.496,-0.715t-2.871,-1.917999t-1.918,-2.871t-0.715,-3.496t0.715,-3.496t1.918,-2.871t2.871,-1.918t3.496,-0.715zm0,2q-1.422,0 -2.719,0.555t-2.234,1.492t-1.492,2.234t-0.555,2.719t0.555,2.719t1.492,2.234t2.234,1.492t2.719,0.555t2.719,-0.555t2.234,-1.492t1.492,-2.234t0.555,-2.719t-0.555,-2.719t-1.492,-2.234t-2.234,-1.492t-2.719,-0.555z"></path>
</symbol>
<symbol id="icon-search-02" viewBox="0 0 451 451">
	<title>search</title>
	<path d="M447.05,428l-109.6-109.6c29.4-33.8,47.2-77.9,47.2-126.1C384.65,86.2,298.35,0,192.35,0C86.25,0,0.05,86.3,0.05,192.3 s86.3,192.3,192.3,192.3c48.2,0,92.3-17.8,126.1-47.2L428.05,447c2.6,2.6,6.1,4,9.5,4s6.9-1.3,9.5-4 C452.25,441.8,452.25,433.2,447.05,428z M26.95,192.3c0-91.2,74.2-165.3,165.3-165.3c91.2,0,165.3,74.2,165.3,165.3 s-74.1,165.4-165.3,165.4C101.15,357.7,26.95,283.5,26.95,192.3z"/>
</symbol>
<symbol id="icon-menu" viewBox="0 0 36 24">
	<title>menu</title>
	<path d="M0 24h36v-4H0v4zm0-10h36v-4H0v4zM0 0v4h36V0H0z"/>
</symbol>
<symbol id="icon-phone" viewBox="0 0 18 18">
	<title>phone</title>
	<path d="M3.6 7.8a15.57 15.57 0 0 0 6.6 6.6l2.2-2.2a.8.8 0 0 1 1-.2 10.46 10.46 0 0 0 3.6.6.94.94 0 0 1 1 1V17a.94.94 0 0 1-1 1A17 17 0 0 1 0 1a.94.94 0 0 1 1-1h3.5a.94.94 0 0 1 1 1 11.33 11.33 0 0 0 .6 3.6 1.23 1.23 0 0 1-.2 1L3.6 7.8z"/>
</symbol>
<symbol id="icon-facebook" viewBox="0 0 30 30">
	<title>Facebook</title>
	<path d="M22,16l1-5l-5,0.001V7c0-1.544,0.784-2,3-2h2V0c0,0-2.05,0-4,0c-4.072,0-7,2.435-7,7v4l-5,0v5h5v14h6V16H22z"/>
</symbol>
<symbol id="icon-vkontakte" viewBox="0 0 30 30">
	<title>Vkontakte</title>
	<path d="M16,24c1,0,1-1.44,1-2a2.15,2.15,0,0,1,2-2c1,0,2.72,1.72,4,3,1,1,1,1,2,1h3a2,2,0,0,0,2-2c0-.62-0.68-1.68-3-4-2-2-3-1,0-5,1.84-2.46,3.18-4.68,3-5.32S24.61,6.09,24,7a37.38,37.38,0,0,0-3,5c-1,2-1.1,3-2,3s-1-1.94-1-3c0-3.31.48-5.64-1-6H14a5.81,5.81,0,0,0-3,1S9.76,8,10,8s2-.41,2,1v2s0,4-1,4S8,11,6,8C5.22,6.82,5,7,4,7S2,7,1,7s-1.13.64-1,1c2,5,3.44,8.14,7.24,12.1,3.49,3.63,5.81,3.82,7.76,3.9C15.5,24,15,24,16,24Z"/>
</symbol>
<symbol id="icon-twitter" viewBox="0 0 30 30">
	<title>Twitter</title>
	<path d="M30,6.708C28.895,7.199,27.244,7.851,26,8c1.273-0.762,2.539-2.561,3-4c-0.971,0.577-2.087,1.355-3.227,1.773 L25,5c-1.121-1.197-2.23-2-4-2c-3.398,0-6,2.602-6,6c0,0.399,0.047,0.7,0.11,0.956L15,10C9,10,5.034,8.724,2,5 C1.469,5.908,1,6.872,1,8c0,2.136,1.348,3.894,3,5c-1.009-0.033-2.171-0.542-3-1c0,2.98,4.186,6.432,7,7c-1,1-4.623,0.074-5,0 c0.784,2.447,3.309,3.949,6,4c-2.105,1.648-4.647,2.51-7.531,2.51c-0.498,0-0.987-0.029-1.469-0.084C2.723,27.17,6.523,28,10,28 c11.322,0,17-8.867,17-17c0-0.268,0.008-0.736,0-1C28.201,9.132,29.172,7.942,30,6.708z"/>
</symbol>
<symbol id="icon-youtube" viewBox="0 0 30 30">
	<title>Youtube</title>
	<path d="M29.699,8.539c0,0-0.293-2.067-1.191-2.979c-1.141-1.194-2.42-1.2-3.006-1.271C21.303,3.986,15,3.986,15,3.986 s-6.304,0-10.502,0.304C3.912,4.36,2.633,4.366,1.492,5.561C0.592,6.472,0.3,8.539,0.3,8.539S0,10.559,0,12.986v3.001 c0,2.427,0.3,4.539,0.3,4.539s0.292,2.066,1.192,2.977c1.141,1.195,2.64,1.158,3.308,1.283c2.4,0.23,10.2,0.201,10.2,0.201 s6.303,0.09,10.502-0.213c0.586-0.07,1.865-0.076,3.006-1.271c0.898-0.91,1.191-2.977,1.191-2.977S30,18.415,30,15.988v-3.001 C30,10.559,29.699,8.539,29.699,8.539z M11,18.493v-8l8,4L11,18.493z"/>
</symbol>
<symbol id="icon-googleplus" viewBox="0 0 30 30">
	<title>Google Plus</title>
	<polygon points="30,13 26,13 26,9 24,9 24,13 20,13 20,15 24,15 24,19 26,19 26,15 30,15 "/>
	<path d="M15,17c0,0-2-1.15-2-2c0,0-0.499-1.828,1-3c1.537-1.2,3-3.035,3-5c0-2.336-1.046-5-3-6h3l2.387-1 c0,0-7.063,0-9.387,0C5.835,0,2,3.345,2,7c0,3.735,2.849,6.56,7.086,6.56c0.295,0,0.581-0.006,0.861-0.025 c-0.274,0.526-0.472,1.119-0.472,1.735c0,1.037,0.818,2.042,1.524,2.73c-0.533,0-1.438,0-2,0c-5.159,0-9,2.593-9,6 c0,3.355,4.872,6,10.031,6c5.882,0,9.97-3,9.97-7C20,20.311,17.455,18.736,15,17z M11,13c-2.395,0-5.587-2.857-6-6 C4.587,3.856,6.607,0.929,9,1c2.394,0.071,4.603,2.908,5.017,6.052C14.429,10.195,13,13,11,13z M10,28c-3.566,0-7-1.289-7-4 c0-2.658,3.434-5.038,7-5c0.832,0.009,2,0,2,0c1,0,2.88,0.881,4,2c1,1,1,2.674,1,3C17,27,15.014,28,10,28z"/>
</symbol>
<symbol id="icon-odnoklassniki" viewBox="0 0 30 30">
	<title>Odnoklassniki</title>
	<path d="M22,15c-1,0-3,2-7,2s-6-2-7-2c-1.104,0-2,0.896-2,2c0,1,0.568,1.481,1,1.734C8.185,19.427,12,21,12,21l-4.25,5.438 c0,0-0.75,0.935-0.75,1.562c0,1.104,0.896,2,2,2c1.021,0,1.484-0.656,1.484-0.656S14.993,23.993,15,24 c0.007-0.007,4.516,5.344,4.516,5.344S19.979,30,21,30c1.104,0,2-0.896,2-2c0-0.627-0.75-1.562-0.75-1.562L18,21 c0,0,3.815-1.573,5-2.266C23.432,18.481,24,18,24,17C24,15.896,23.104,15,22,15z"/>
	<path d="M15,0c-3.866,0-7,3.134-7,7s3.134,7,7,7c3.865,0,7-3.134,7-7S18.865,0,15,0z M15,10.5c-1.933,0-3.5-1.566-3.5-3.5 c0-1.933,1.567-3.5,3.5-3.5c1.932,0,3.5,1.567,3.5,3.5C18.5,8.934,16.932,10.5,15,10.5z"/>
</symbol>
<symbol id="icon-instagram" viewBox="0 0 30 30">
	<title>Instagram</title>
	<path d="M26,0C26,0,3.529,0,3.5,0C1.582,0,0.027,1.586,0.004,3.5L0,3.458c0,0,0,23.028,0,23.042 C0,28.434,1.567,30,3.5,30c0.014,0,23,0,23,0c1.873-0.067,3.5-1.609,3.5-3.5c0-0.014,0-23,0-23C29.978,1.629,27.859,0.067,26,0z M15,9.5c3.038,0,5.5,2.463,5.5,5.5c0,3.036-2.462,5.5-5.5,5.5c-3.037,0-5.5-2.464-5.5-5.5C9.5,11.963,11.963,9.5,15,9.5z M26,24 c0,1.104-0.896,2-2,2H6c-1.104,0-2-0.896-2-2V12.5h2.359C6.13,13.294,6,14.132,6,15c0,4.97,4.031,9,9,9c4.972,0,9-4.03,9-9 c0-0.868-0.13-1.706-0.359-2.5H26l-0.004,11.461C25.996,23.975,26,23.986,26,24z M26,5.008v3.016h-0.005 c-0.013,0.535-0.442,0.965-0.979,0.974V9H22c-0.545,0-0.982-0.436-0.995-0.977H21V5.008h0.002C21.002,5.005,21,5.003,21,5 c0-0.552,0.447-1,1-1h3.016v0.003C25.561,4.012,26,4.453,26,5c0,0.003-0.002,0.005-0.002,0.008H26z"/>
</symbol>
<symbol id="icon-pinterest" viewBox="0 0 30 30">
	<title>Pinterest</title>
	<path d="M16,0C7.813,0,3,6.105,3,11c0,2.964,2,6,3,6s2,0,2-1s-2-2-2-5c0-4.354,4.773-8,10-8c4.627,0,7,3.224,7,7 c0,4.968-2.735,9-6,9c-1.803,0-3.433-1.172-3-3c0.519-2.184,1-2,2-6c0.342-1.368-0.433-3-2-3c-1.843,0-4,1.446-4,4c0,1.627,1,3,1,3 s-2.245,7.863-2.576,9.263C7.766,26.049,6.938,30,7.938,30S10,28,12,23c0.295-0.738,1-3,1-3c0.599,1.142,3.14,2,5,2 c5.539,0,9-5.24,9-12C27,4.888,22.58,0,16,0z"/>
</symbol>
<symbol id="icon-linkedin" viewBox="0 0 30 30">
	<title>Linkedin</title>
	<path d="M11,10h6v3l0,0c0.83-1.572,2.977-3,6-3c6.291,0,7,3.616,7,9v11h-6V20c0-2.318,0.188-5-3-5c-4,0-4,2.393-4,5v10h-6 V10z"/>
	<rect height="20" width="6" x="1" y="10"/>
	<circle cx="4" cy="3.5" r="3.5"/>
</symbol>
<symbol id="icon-vimeo" viewBox="0 0 30 30">
	<title>Vimeo</title>
	<path d="M1,10c0,0,3-3,4,0c1,4,3.232,11.465,5,15c1,2,3,3,5,3s3.906-1.104,5-2c2.788-2.286,8.325-7.555,10-17 c1.677-9.441-11.629-8.226-13,0c3.428-2.058,5,1,4,4s-3,6-4,6c-0.836,0-2.042-2.171-3-6C13.097,9.385,12,2,9,2S5,3,5,3 C2.212,5.286,0,9.035,0,9.035L1,10z"/>
</symbol>
<symbol id="icon-behance" viewBox="0 0 30 30">
	<title>Behance</title>
	<path d="M29,19h0.859C29.951,18.516,30,18.014,30,17.5c0-4.142-3.134-7.5-7-7.5s-7,3.358-7,7.5c0,4.143,3.134,7.5,7,7.5 c2.686,0,5.016-1.622,6.189-4h-3.704c-0.684,0.616-1.541,1-2.485,1c-1.739,0-3.204-1.256-3.755-3h7.51H29z M19.245,16 c0.551-1.744,2.016-3,3.755-3s3.204,1.256,3.755,3H19.245z"/>
	<rect height="2" width="7" x="19" y="7"/>
	<path d="M10.867,15.087C12.154,14.183,13,12.693,13,11c0-2.761-2.239-5-5-5v0H0v9v1v9h10c2.762,0,5-2.238,5-5 C15,17.535,13.213,15.499,10.867,15.087z M3,9h5c1.104,0,2,0.896,2,2c0,1.104-0.896,2-2,2H3V9z M9,22H3v-5h6 c1.141,0.231,2,1.29,2,2.5S10.141,21.769,9,22z"/>
</symbol>
<symbol id="icon-skype" viewBox="0 0 30 30">
	<title>skype</title>
	<path d="M29.084,18.496c-0.089-0.207-0.128-0.397-0.081-0.627 c0.339-1.676,0.351-3.355,0.072-5.044c-1.225-7.441-8.236-12.658-15.687-11.65c-0.438,0.059-0.799-0.01-1.189-0.219 c-3.149-1.682-7-1.104-9.561,1.41c-2.521,2.477-3.156,6.347-1.541,9.499c0.17,0.332,0.223,0.631,0.146,1 c-0.155,0.756-0.17,1.529-0.205,2.335c0.027,0.45,0.035,0.937,0.086,1.42c0.843,8.064,8.229,13.722,16.273,12.464 c0.246-0.038,0.452,0.003,0.672,0.113c1.521,0.767,3.152,0.953,4.797,0.69C28.245,29.031,31.241,23.504,29.084,18.496z M22.073,22.255c-0.902,1.028-2.04,1.687-3.331,2.058c-2.423,0.697-4.871,0.721-7.283-0.005C9.264,23.646,7.645,22.287,7,20.007 c-0.457-1.617,0.586-2.825,2.197-2.636c0.695,0.082,1.153,0.503,1.479,1.083c0.204,0.363,0.376,0.747,0.559,1.123 c0.599,1.227,1.562,1.92,2.931,2.07c1.121,0.123,2.204,0.043,3.241-0.427c0.401-0.182,0.756-0.432,1.046-0.767 c0.775-0.896,0.636-2.163-0.316-2.868c-0.92-0.681-2.023-0.863-3.098-1.103c-1.536-0.343-3.078-0.668-4.523-1.312 c-1.494-0.666-2.707-1.633-3.098-3.322C6.963,9.89,7.509,8.232,9.077,6.961c1.384-1.121,3.05-1.483,4.773-1.634 c0.399-0.035,0.803-0.005,1.204-0.005c1.592-0.043,3.143,0.167,4.58,0.9c1.1,0.562,2.011,1.327,2.541,2.476 c0.259,0.563,0.383,1.163,0.216,1.762c-0.202,0.728-0.697,1.234-1.449,1.387c-0.782,0.159-1.511,0.035-2.003-0.692 c-0.235-0.346-0.461-0.698-0.673-1.059c-0.672-1.145-1.631-1.782-2.991-1.778c-0.621,0.003-1.24-0.018-1.848,0.13 c-0.547,0.132-1.047,0.359-1.462,0.744c-0.739,0.687-0.711,1.629,0.078,2.257c0.52,0.413,1.134,0.644,1.771,0.806 c1.49,0.38,2.988,0.733,4.477,1.122c0.811,0.212,1.585,0.53,2.336,0.907C24.117,16.033,23.868,20.212,22.073,22.255z"/>
</symbol>
<symbol id="icon-telegram" viewBox="0 0 100 100">
	<title>telegram</title>
	<path d="M95,9.9c-1.3-1.1-3.4-1.2-7-0.1c0,0,0,0,0,0c-2.5,0.8-24.7,9.2-44.3,17.3c-17.6,7.3-31.9,13.7-33.6,14.5  c-1.9,0.6-6,2.4-6.2,5.2c-0.1,1.8,1.4,3.4,4.3,4.7c3.1,1.6,16.8,6.2,19.7,7.1c1,3.4,6.9,23.3,7.2,24.5c0.4,1.8,1.6,2.8,2.2,3.2  c0.1,0.1,0.3,0.3,0.5,0.4c0.3,0.2,0.7,0.3,1.2,0.3c0.7,0,1.5-0.3,2.2-0.8c3.7-3,10.1-9.7,11.9-11.6c7.9,6.2,16.5,13.1,17.3,13.9  c0,0,0.1,0.1,0.1,0.1c1.9,1.6,3.9,2.5,5.7,2.5c0.6,0,1.2-0.1,1.8-0.3c2.1-0.7,3.6-2.7,4.1-5.4c0-0.1,0.1-0.5,0.3-1.2  c3.4-14.8,6.1-27.8,8.3-38.7c2.1-10.7,3.8-21.2,4.8-26.8c0.2-1.4,0.4-2.5,0.5-3.2C96.3,13.5,96.5,11.2,95,9.9z M30,58.3l47.7-31.6  c0.1-0.1,0.3-0.2,0.4-0.3c0,0,0,0,0,0c0.1,0,0.1-0.1,0.2-0.1c0.1,0,0.1,0,0.2-0.1c-0.1,0.1-0.2,0.4-0.4,0.6L66,38.1  c-8.4,7.7-19.4,17.8-26.7,24.4c0,0,0,0,0,0.1c0,0-0.1,0.1-0.1,0.1c0,0,0,0.1-0.1,0.1c0,0.1,0,0.1-0.1,0.2c0,0,0,0.1,0,0.1  c0,0,0,0,0,0.1c-0.5,5.6-1.4,15.2-1.8,19.5c0,0,0,0,0-0.1C36.8,81.4,31.2,62.3,30,58.3z"/>
</symbol>
<symbol id="icon-update" viewBox="2 -5 16 16">
	<title>update</title>
	<path d="M15.9-2.4C14.4-4 12.3-5 10-5 5.6-5 2-1.4 2 3h1.5c0-3.6 2.9-6.5 6.5-6.5 1.9 0 3.6.8 4.8 2.2L12.5 1H18v-5.5l-2.1 2.1zM16.5 3c0 3.6-2.9 6.5-6.5 6.5-1.9 0-3.6-.8-4.8-2.2L7.5 5H2v5.5l2.1-2.1C5.6 10 7.7 11 10 11c4.4 0 8-3.6 8-8h-1.5z"/>
</symbol>
<symbol id="icon-update-2" viewBox="0 0 28 28">
	<title>update-2</title>
	<path d="M14 0a14 14 0 1 0 0 28 14 14 0 0 0 10-4l-2.75-3a10 10 0 1 1 0-14L17 11h11V0l-4 4a14 14 0 0 0-10-4"/>
</symbol>
<symbol id="icon-favorites" viewBox="0 0 471.701 471.701">
	<title>favorites</title>
	<path d="M433.601,67.001c-24.7-24.7-57.4-38.2-92.3-38.2s-67.7,13.6-92.4,38.3l-12.9,12.9l-13.1-13.1 c-24.7-24.7-57.6-38.4-92.5-38.4c-34.8,0-67.6,13.6-92.2,38.2c-24.7,24.7-38.3,57.5-38.2,92.4c0,34.9,13.7,67.6,38.4,92.3 l187.8,187.8c2.6,2.6,6.1,4,9.5,4c3.4,0,6.9-1.3,9.5-3.9l188.2-187.5c24.7-24.7,38.3-57.5,38.3-92.4 C471.801,124.501,458.301,91.701,433.601,67.001z M414.401,232.701l-178.7,178l-178.3-178.3c-19.6-19.6-30.4-45.6-30.4-73.3 s10.7-53.7,30.3-73.2c19.5-19.5,45.5-30.3,73.1-30.3c27.7,0,53.8,10.8,73.4,30.4l22.6,22.6c5.3,5.3,13.8,5.3,19.1,0l22.4-22.4 c19.6-19.6,45.7-30.4,73.3-30.4c27.6,0,53.6,10.8,73.2,30.3c19.6,19.6,30.3,45.6,30.3,73.3 C444.801,187.101,434.001,213.101,414.401,232.701z"/>
</symbol>
<symbol id="icon-cabinet" viewBox="0 0 26 26">
	<title>cabinet</title>
	<path d="M25,13c0-6.6166992-5.3828125-12-12-12S1,6.3833008,1,13c0,3.383606,1.413208,6.4386597,3.673645,8.6222534 c0.0529175,0.0689087,0.1156006,0.1247559,0.1889648,0.171814C7.0038452,23.7769165,9.8582764,25,13,25 s5.9961548-1.2230835,8.1373901-3.2059326c0.0733643-0.0470581,0.1360474-0.1029053,0.1889648-0.171814 C23.586792,19.4386597,25,16.383606,25,13z M13,2.5c5.7900391,0,10.5,4.7104492,10.5,10.5 c0,2.4549561-0.8532715,4.7108154-2.2702637,6.5008545c-0.6505127-2.0978394-2.5076294-3.7401123-5.0281372-4.4957886 c1.3735962-0.9940796,2.2720337-2.6046143,2.2720337-4.4244995c0-3.0141602-2.4550781-5.4663086-5.4736328-5.4663086 s-5.4736328,2.4521484-5.4736328,5.4663086c0,1.8198853,0.8984375,3.4304199,2.2720337,4.4244995 c-2.5205078,0.7556763-4.3776245,2.3979492-5.0281372,4.4957886C3.3532715,17.7108154,2.5,15.4549561,2.5,13 C2.5,7.2104492,7.2099609,2.5,13,2.5z M9.0263672,10.5805664c0-2.1870117,1.7822266-3.9663086,3.9736328-3.9663086 s3.9736328,1.7792969,3.9736328,3.9663086S15.1914063,14.546875,13,14.546875S9.0263672,12.7675781,9.0263672,10.5805664z M6.0307617,20.8319702C6.2562256,18.0820313,9.1723633,16.046875,13,16.046875s6.7437744,2.0351563,6.9692383,4.7850952 C18.1130981,22.4855347,15.6757202,23.5,13,23.5S7.8869019,22.4855347,6.0307617,20.8319702z"/>
</symbol>
<symbol id="icon-cabinet-1" viewBox="0 0 24 24">
	<title>cabinet 1</title>
	<g fill="none" stroke-width="0.5" stroke-linecap="square" stroke-linejoin="round">
		<path d="M5.52 19c.64-2.2 1.84-3 3.22-3h6.52c1.38 0 2.58.8 3.22 3"/>
		<circle cx="12" cy="10" r="3"/>
		<circle cx="12" cy="12" r="11.5"/>
	</g>
</symbol>
<symbol id="icon-cabinet-2" viewBox="0 0 24 24">
	<title>cabinet 2</title>
	<g fill="none" stroke-width="1" stroke-linecap="square" stroke-linejoin="round">
		<path d="M5.52 19c.64-2.2 1.84-3 3.22-3h6.52c1.38 0 2.58.8 3.22 3"/>
		<circle cx="12" cy="10" r="3"/>
		<circle cx="12" cy="12" r="11.2"/>
	</g>
</symbol>
<symbol id="icon-cabinet-3" viewBox="0 0 24 24">
	<title>cabinet 3</title>
	<g fill="none" stroke-width="1.5" stroke-linecap="square" stroke-linejoin="round">
		<path d="M5.52 19c.64-2.2 1.84-3 3.22-3h6.52c1.38 0 2.58.8 3.22 3"/>
		<circle cx="12" cy="10" r="3"/>
		<circle cx="12" cy="12" r="11"/>
	</g>
</symbol>
<symbol id="icon-contacts" viewBox="0 0 489.5 489.5">
	<title>contacts</title>
	<path d="M392.15,451.4V38c0-20.9-17-38-38-38h-218.8c-20.9,0-38,17-38,38v413.5c0,20.9,17,38,38,38h218.8 C375.05,489.4,392.15,472.4,392.15,451.4z M121.85,88.1h245.7v278.2h-245.7V88.1z M135.35,24.5h218.8c7.4,0,13.5,6,13.5,13.5v25.6 h-245.8V38C121.85,30.5,127.95,24.5,135.35,24.5z M121.85,451.4v-60.7h245.7v60.7c0,7.4-6,13.5-13.5,13.5h-218.7 C127.95,464.9,121.85,458.9,121.85,451.4z"/>
	<path d="M269.55,416.6h-49.7c-6.8,0-12.3,5.5-12.3,12.3s5.5,12.3,12.3,12.3h49.7c6.8,0,12.3-5.5,12.3-12.3 C281.85,422.1,276.35,416.6,269.55,416.6z"/>
</symbol>
<symbol id="icon-page-before" viewBox="0 0 32 32">
	<title>page-before</title>
	<path d="M30,15H4.59L9.88,9.71,8.46,8.29,2.88,13.88a3,3,0,0,0,0,4.24l5.58,5.59,1.42-1.42L4.59,17H30Z"/>
</symbol>
<symbol id="icon-page-after" viewBox="0 0 32 32">
	<title>page-after</title>
	<path d="M29.12,13.88,23.54,8.29,22.12,9.71,27.41,15H2v2H27.41l-5.29,5.29,1.42,1.42,5.58-5.59a3,3,0,0,0,0-4.24Z"/>
</symbol>
<symbol id="icon-picture-placeholder" viewBox="0 0 64 64">
	<title>picture-placeholder</title>
	<path style=" stroke:none;fill-rule:nonzero;fill:rgb(92.941176%,92.941176%,92.941176%);fill-opacity:1;" d="M 4 10 L 4 54 L 60 54 L 60 10 Z M 8 14 L 56 14 L 56 41.8125 L 45.4375 31.1875 L 44 29.75 L 34.9375 38.8125 L 23.4375 27.1875 L 22 25.75 L 8 39.75 Z M 48 18 C 45.789062 18 44 19.789062 44 22 C 44 24.210938 45.789062 26 48 26 C 50.210938 26 52 24.210938 52 22 C 52 19.789062 50.210938 18 48 18 Z M 22 31.4375 L 40.375 50 L 8 50 L 8 45.4375 Z M 44 35.4375 L 56 47.4375 L 56 50 L 46.0625 50 L 37.75 41.625 Z M 44 35.4375 "/>
</symbol>
<symbol id="icon-video-placeholder" viewBox="0 0 64 64">
	<title>video-placeholder</title>
	<path style=" stroke:none;fill-rule:nonzero;fill:rgb(92.941176%,92.941176%,92.941176%);fill-opacity:1;" d="M 4 16 L 4 48 L 48 48 L 48 41.25 L 60 47.25 L 60 16.75 L 48 22.75 L 48 16 Z M 8 20 L 44 20 L 44 44 L 8 44 Z M 56 23.25 L 56 40.75 L 48 36.75 L 48 27.25 Z M 56 23.25 "/>
</symbol>
<symbol id="icon-img-edit" viewBox="0 0 32 32">
	<title>img-edit</title>
	<path d="M 2 5 L 2 27 L 30 27 L 30 5 Z M 4 7 L 28 7 L 28 20.90625 L 22.71875 15.59375 L 22 14.875 L 17.46875 19.40625 L 11.71875 13.59375 L 11 12.875 L 4 19.875 Z M 24 9 C 22.894531 9 22 9.894531 22 11 C 22 12.105469 22.894531 13 24 13 C 25.105469 13 26 12.105469 26 11 C 26 9.894531 25.105469 9 24 9 Z M 11 15.71875 L 20.1875 25 L 4 25 L 4 22.71875 Z M 22 17.71875 L 28 23.71875 L 28 25 L 23.03125 25 L 18.875 20.8125 Z M 22 17.71875 "/>
</symbol>
<symbol id="icon-language-ru" viewBox="0 0 27 18">
	<title>Russia</title>
	<rect fill="#FFFFFF" width="27" height="6"/>
	<rect y="12" fill="#D52B1E" width="27" height="6"/>
	<rect y="6" fill="#0039A6" width="27" height="6"/>
</symbol>
<symbol id="icon-language-ua" viewBox="0 0 27 18">
	<title>Ukraine</title>
	<rect fill="#005BBB" width="27" height="9"/>
	<rect y="9" fill="#FFD500" width="27" height="9"/>
</symbol>
<symbol id="icon-language-en" viewBox="0 0 27 18">
	<title>United Kingdom</title>
	<rect fill="#FFFFFF" width="27" height="18"/>
	<path fill="#00247D" d="M16,0v5.649L24.057,0H16z M20,6h7V1.1L20,6z M27,17.649V12h-8.059L27,17.649z M16,18h7l-7-4.9V18z M0,1.1V6
		h7L0,1.1z M11,5.649V0H2.942L11,5.649z M0,12v5.649L8.058,12H0z M11,18v-4.9L4,18H11z"/>
	<polygon fill="#FFFFFF" points="27,6 16,6 16,0 11,0 11,6 0,6 0,12 11,12 11,18 16,18 16,12 27,12 	"/>
	<path fill="#CF142B" d="M27,0h-1.443L17,6h1.43L27,0z M16,12l8.57,6H26l-8.559-6H16z M10,6L1.442,0H0l8.57,6H10z M1,18h1.43L11,12
		H9.558L1,18z M15,0h-3v7H0v4h12v7h3v-7h12V7H15V0z"/>
</symbol>
<symbol id="icon-language-de" viewBox="0 0 27 18">
	<title>Germany</title>
	<rect id="gold_stripe" y="12" fill="#FFCE00" width="27" height="6"/>
	<rect id="gold_stripe_2_" y="6" fill="#DD0000" width="27" height="6"/>
	<rect id="gold_stripe_3_" width="27" height="6"/>
</symbol>
<symbol id="icon-language-cn" viewBox="0 0 27 18">
	<title>China</title>
	<rect fill="#DD2911" width="27" height="18"/>
	<rect x="8" y="1" fill="#FDDC26" width="1" height="1"/>
	<rect x="10" y="3" fill="#FDDC26" width="1" height="1"/>
	<rect x="10" y="6" fill="#FDDC26" width="1" height="1"/>
	<rect x="8" y="8" fill="#FDDC26" width="1" height="1"/>
	<rect x="2" y="4" fill="#FDDC26" width="5" height="1"/>
	<rect x="3" y="4" fill="#FDDC26" width="1" height="3"/>
	<rect x="4" y="5" fill="#FDDC26" width="2" height="1"/>
	<rect x="5" y="5" fill="#FDDC26" width="1" height="2"/>
	<rect x="4" y="2" fill="#FDDC26" width="1" height="2"/>
</symbol>
<symbol id="icon-language-es" viewBox="0 0 27 18">
	<title>Spain</title>
	<rect fill="#C60B1E" width="27" height="18"/>
	<rect y="4" fill="#FFC400" width="27" height="10"/>
	<path fill="#A08C00" d="M9,6V5H6v1h1v1h1V6H9z M8,8h1V7H8V8z M6,8h1V7H6V8z M5,6v1h1V6H5z M9,7h1V6H9V7z M12,7v1h1V7H12z M4,13h1
		v-2H4V13z M6,13h1v-2H6V13z M12,13h1v-1h-1V13z M2,13h1v-1H2V13z M2,8h1V7H2V8z"/>
	<path fill="#AC1518" d="M8,7H7v1h1V7z M11,9v1h2V9H11z M12,12h1v-1h-1V12z M8,13h3v-2H8V13z M5,13h1v-2H5V13z M2,12h1v-1H2V12z
		 M4,9H2v1h5V8H4V9z"/>
	<path fill="#028D6E" d="M9,7v1h1V7H9z M5,8h1V7H5V8z"/>
	<path fill="#CBCBCB" d="M2,9h1V8H2V9z M2,11h1v-1H2V11z M8,10h3V8H8V10z M12,11h1v-1h-1V11z M12,8v1h1V8H12z"/>
	<path d="M8,8H7v1h1V8z M8,10v1h3v-1H8z M7,13h1v-1H7V13z M7,10H4v1h3V10z"/>
	<rect x="7" y="9" fill="#095BBD" width="1" height="3"/>
</symbol>
<symbol id="icon-language-it" viewBox="0 0 27 18">
	<title>Italy</title>
	<rect fill="#009344" width="9" height="18"/>
	<rect x="9" fill="#FFFFFF" width="9" height="18"/>
	<rect x="18" fill="#CF2734" width="9" height="18"/>
</symbol>
<symbol id="icon-language-fr" viewBox="0 0 27 18">
	<title>France</title>
	<rect fill="#002395" width="9" height="18"/>
	<rect x="9" fill="#FFFFFF" width="9" height="18"/>
	<rect x="18" fill="#ED2939" width="9" height="18"/>
</symbol>
<symbol id="icon-language-us" viewBox="0 0 27 18">
	<title>USA</title>
	<rect fill="#FFFFFF" width="27" height="18"/>
	<path fill="#B12234" d="M0,18h27v-2H0V18z M0,15h27v-2H0V15z M0,12h27v-2H0V12z M0,9h27V7H0V9z M0,6h27V4H0V6z M0,1v2h27V1H0z"/>
	<rect fill="#3C3B6D" width="11" height="9"/>
	<path fill="#FFFFFF" d="M1,2h1V1H1V2z M1,4h1V3H1V4z M1,6h1V5H1V6z M1,8h1V7H1V8z M3,2h1V1H3V2z M3,4h1V3H3V4z M3,6h1V5H3V6z M3,8
		h1V7H3V8z M5,2h1V1H5V2z M5,4h1V3H5V4z M5,6h1V5H5V6z M5,8h1V7H5V8z M7,2h1V1H7V2z M7,4h1V3H7V4z M7,6h1V5H7V6z M7,8h1V7H7V8z M9,1
		v1h1V1H9z M9,4h1V3H9V4z M9,6h1V5H9V6z M9,8h1V7H9V8z"/>
</symbol>
<symbol id="icon-language-kz" viewBox="0 0 27 18">
	<title>Kazakhstan</title>
	<rect fill="#03AEC9" width="27" height="18"/>
	<path fill="#FDC41B" d="M2,2v1h1V2H2z M5,2H4v1h1V2z M3,3v2h1V3H3z M2,5v1h1V5H2z M5,6V5H4v1H5z M3,8h1V6H3V8z M2,16h1v-1H2V16z
		 M5,16v-1H4v1H5z M3,15h1v-2H3V15z M2,12v1h1v-1H2z M5,13v-1H4v1H5z M3,12h1v-2H3V12z M2,8v2h1V8H2z M5,10V8H4v2H5z"/>
	<path fill="#FDC41B" d="M17,4h-1v1h1V4z M20,5h-1v1h1V5z M20,8v1h1V8H20z M19,12h1v-1h-1V12z M16,13h1v-1h-1V13z M12.999,12h1v-1
		h-1V12z M13,8h-1v1h1V8z M14,5h-1v1h1V5z M16.5,6C15.119,6,14,7.119,14,8.5s1.12,2.5,2.5,2.5S19,9.881,19,8.5S17.881,6,16.5,6z"/>
</symbol>
<symbol id="icon-language-pt" viewBox="0 0 27 18">
	<title>Portugal</title>
	<rect x="11" fill="#FF0302" width="16" height="18"/>
	<rect fill="#006506" width="11" height="18"/>
	<circle fill="#FDFC1F" cx="11" cy="9" r="5"/>
	<path fill="#FF0302" d="M14,10c0,1.657-1.343,3-3,3s-3-1.343-3-3V5h6V10z"/>
	<rect x="7" y="4" width="1" height="1"/>
	<rect x="14" y="4" width="1" height="1"/>
	<rect x="14" y="12" width="1" height="1"/>
	<rect x="6.999" y="12" width="1" height="1"/>
	<path fill="#FFFFFF" d="M13,10c0,1.104-0.896,2-2,2s-2-0.896-2-2V6h4V10z"/>
	<rect x="10" y="7" fill="#727E98" width="2" height="1"/>
	<rect x="10" y="9" fill="#727E98" width="2" height="1"/>
</symbol>
<symbol id="icon-language-tr" viewBox="0 0 1200 800">
	<title>Turkey</title>
	<rect width="1200" height="800" fill="#E30A17"/>
	<circle cx="425" cy="400" r="200" style="fill:#ffffff"/>
	<circle cx="475" cy="400" r="160" style="fill:#E30A17"/>
	<polygon style="fill:#ffffff" points="583.334,400 764.235,458.779 652.431,304.894 652.431,495.106 764.235,341.221"/>
</symbol>
<symbol id="icon-language-cz" viewBox="0 0 27 18">
	<title>Czech Republic</title>
	<rect y="9" fill="#D7141A" width="27" height="9"/>
	<rect fill="#FFFFFF" width="27" height="9"/>
	<path fill="#11457E" d="M14,9L0,0v18L14,9z"/>
</symbol>
<symbol id="icon-globe" viewBox="0 0 21 21">
	<title>Globe</title>
	<g fill="none" fill-rule="evenodd" stroke-linecap="round" stroke-linejoin="round" transform="translate(2 3)">
		<path d="m8 16c4.4380025 0 8-3.5262833 8-7.96428571 0-4.43800246-3.5619975-8.03571429-8-8.03571429-4.43800245 0-8 3.59771183-8 8.03571429 0 4.43800241 3.56199755 7.96428571 8 7.96428571z"/>
		<path d="m1 5h14"/>
		<path d="m1 11h14"/>
		<path d="m8 16c2.2190012 0 4-3.5262833 4-7.96428571 0-4.43800246-1.7809988-8.03571429-4-8.03571429-2.21900123 0-4 3.59771183-4 8.03571429 0 4.43800241 1.78099877 7.96428571 4 7.96428571z"/>
	</g>
</symbol>
<symbol id="icon-globe-2" viewBox="0 0 716 716">
	<title>Globe</title>
	<path d="M358,716c-96.09,0-186.09-36.84-253.41-103.75S0,455.46,0,359.5A359.36,359.36,0,0,1,104.5,105.34C172,37.41,262,0,358,0S544,37.41,611.5,105.34A359.36,359.36,0,0,1,716,359.5c0,96-37.15,185.72-104.59,252.75S454.09,716,358,716Zm0-672C184.86,44,44,185.53,44,359.5,44,534.73,181.92,672,358,672S672,534.73,672,359.5C672,185.53,531.14,44,358,44Z"/>
	<path d="M652,254H64a22,22,0,0,1,0-44H652a22,22,0,0,1,0,44Z"/>
	<path d="M652,506H64a22,22,0,0,1,0-44H652a22,22,0,0,1,0,44Z"/>
	<path d="M358,716c-53.87,0-103.09-38.87-138.6-109.46-33.15-65.88-51.4-153.62-51.4-247s18.24-181.8,51.35-248.44C254.94,39.44,304.18,0,358,0S461.06,39.44,496.65,111.06C529.76,177.7,548,265.93,548,359.5s-18.25,181.16-51.4,247C461.09,677.13,411.87,716,358,716Zm0-672c-17.42,0-34.69,7.16-51.33,21.29-17.48,14.84-34,37.44-47.92,65.35C228.6,191.31,212,272.59,212,359.5c0,86.69,16.59,167.4,46.7,227.26,27.66,55,62.92,85.24,99.3,85.24s71.64-30.27,99.3-85.24C487.41,526.9,504,446.19,504,359.5c0-86.91-16.6-168.19-46.75-228.86-13.87-27.91-30.44-50.51-47.92-65.35C392.69,51.16,375.42,44,358,44Z"/>
</symbol>
<symbol id="icon-messengers-youtube" viewBox="0 -77 512.00213 512">
	<title>YouTube</title>
	<path d="m501.453125 56.09375c-5.902344-21.933594-23.195313-39.222656-45.125-45.128906-40.066406-10.964844-200.332031-10.964844-200.332031-10.964844s-160.261719 0-200.328125 10.546875c-21.507813 5.902344-39.222657 23.617187-45.125 45.546875-10.542969 40.0625-10.542969 123.148438-10.542969 123.148438s0 83.503906 10.542969 123.148437c5.90625 21.929687 23.195312 39.222656 45.128906 45.128906 40.484375 10.964844 200.328125 10.964844 200.328125 10.964844s160.261719 0 200.328125-10.546875c21.933594-5.902344 39.222656-23.195312 45.128906-45.125 10.542969-40.066406 10.542969-123.148438 10.542969-123.148438s.421875-83.507812-10.546875-123.570312zm0 0" fill="#f00"/>
	<path d="m204.96875 256 133.269531-76.757812-133.269531-76.757813zm0 0" fill="#fff"/>
</symbol>
<symbol id="icon-messengers-whatsapp" viewBox="0 0 24 24">
	<title>Whatsapp</title>
	<circle cx="50%" cy="50%" r="11" fill="white" />
	<path fill="#2BB641" d="M15.594,13.28c-0.197-0.098-1.162-0.574-1.344-0.638c-0.18-0.067-0.352-0.044-0.486,0.146  c-0.191,0.267-0.379,0.538-0.527,0.7c-0.119,0.127-0.314,0.143-0.479,0.074c-0.217-0.091-0.83-0.306-1.584-0.975  c-0.582-0.521-0.979-1.168-1.096-1.362c-0.113-0.199-0.01-0.314,0.082-0.422c0.1-0.122,0.195-0.211,0.293-0.325  c0.1-0.115,0.154-0.175,0.219-0.31c0.066-0.131,0.02-0.266-0.029-0.366c-0.047-0.1-0.443-1.066-0.607-1.461  C9.906,8.029,9.807,8.018,9.607,8.008C9.531,8.004,9.457,8.002,9.383,8c-0.26,0-0.529,0.076-0.691,0.244  C8.492,8.447,8,8.919,8,9.887c0,0.969,0.705,1.906,0.801,2.038c0.1,0.129,1.379,2.146,3.363,2.97  c1.553,0.643,2.012,0.584,2.367,0.508c0.516-0.111,1.162-0.492,1.326-0.954c0.162-0.46,0.162-0.853,0.113-0.936  C15.924,13.429,15.795,13.381,15.594,13.28z M12,0C5.373,0,0,5.373,0,12s5.373,12,12,12s12-5.373,12-12S18.627,0,12,0z M12,19  c-1.357,0-2.619-0.393-3.691-1.061L5,19l1.094-3.253C5.404,14.663,5,13.38,5,12c0-3.866,3.133-7,7-7  c0.012,0,0.023,0.002,0.035,0.002C12.049,5.002,12.061,5,12.072,5c1.885,0,3.592,0.767,4.828,2.005C18.195,8.275,19,10.043,19,12  C19,15.866,15.865,19,12,19z"/>
</symbol>
<symbol id="icon-messengers-telegram" viewBox="0 0 24 24">
	<title>Telegram</title>
	<circle cx="50%" cy="50%" r="11" fill="white" />
	<path fill="#0087D0" d="M15.439,8.379c-2.5,1.596-6.939,4.43-6.939,4.43l0.98,3.231l0.219-2.046c0,0,3.781-3.413,5.939-5.357  c0.063-0.058,0.07-0.154,0.02-0.221C15.605,8.35,15.51,8.333,15.439,8.379z M12,0C5.373,0,0,5.372,0,12c0,6.627,5.373,12,12,12  s12-5.373,12-12C24,5.372,18.627,0,12,0z M15.791,17.465c-0.047,0.225-0.207,0.409-0.422,0.491  c-0.215,0.081-0.457,0.048-0.645-0.085c-1.184-0.842-3.268-2.369-3.268-2.369s-1.096,1.035-1.805,1.704  c-0.125,0.119-0.305,0.165-0.473,0.121s-0.297-0.173-0.352-0.336c-0.441-1.3-1.289-3.858-1.289-3.858s-1.813-0.574-3.193-0.988  C4.146,12.085,4.008,11.906,4,11.7c-0.006-0.207,0.121-0.394,0.316-0.468c3.078-1.139,10.611-3.965,13.057-4.871  c0.158-0.057,0.336-0.026,0.465,0.082c0.129,0.109,0.188,0.279,0.152,0.443C17.529,9.053,16.299,15.083,15.791,17.465z"/>
</symbol>
<symbol id="icon-messengers-viber" viewBox="0 0 24 24">
	<title>Viber</title>
	<circle cx="50%" cy="50%" r="11" fill="white" />
	<path fill="#834995" d="M14.072,13.53c-0.219-0.161-0.57-0.378-0.768-0.489c-0.352-0.197-0.711-0.073-0.859,0.12l-0.309,0.387  c-0.156,0.197-0.4,0.165-0.465,0.151c-0.455-0.111-0.938-0.391-1.434-0.86c-0.502-0.474-0.807-0.969-0.912-1.483l-0.01-0.034  c-0.029-0.211,0.008-0.309,0.096-0.454l0.016-0.013c0.209-0.189,0.596-0.42,0.646-0.64c0.152-0.381-0.506-1.177-0.6-1.317  c0,0-0.48-0.62-0.65-0.738c-0.184-0.15-0.467-0.236-0.756-0.063L8.055,8.107C7.229,8.653,6.93,8.968,7.012,9.437l0.041,0.188  c0.42,1.291,1.229,2.668,2.434,3.894c1.191,1.211,2.48,1.937,3.75,2.438c0.332,0.107,0.674,0.015,1.023-0.278l0.006-0.005  c0.27-0.246,0.484-0.509,0.643-0.792l0.002-0.006c0.154-0.298,0.102-0.581-0.127-0.772C14.783,14.102,14.305,13.703,14.072,13.53z   M11.998,9.5c0.828,0,1.498,0.672,1.5,1.499c0,0.276,0.223,0.499,0.5,0.499s0.5-0.223,0.5-0.499c0-1.382-1.121-2.5-2.5-2.5  c-0.277,0-0.502,0.223-0.502,0.501C11.496,9.276,11.721,9.5,11.998,9.5z M12,0C5.373,0,0,5.372,0,12s5.373,12,12,12s12-5.372,12-12  S18.627,0,12,0z M18.857,13.679c-0.439,3.651-3.146,4.003-3.625,4.162c-0.207,0.068-2.029,0.529-4.396,0.33  c-0.262,0.306-0.607,0.711-0.859,0.985c-0.459,0.501-0.74,0.966-1.219,0.814c-0.395-0.124-0.373-0.735-0.373-0.735l0.002-1.511  l-0.004-0.001c-3.465-0.99-3.412-4.641-3.373-6.59C5.049,9.186,5.42,7.613,6.477,6.54c1.898-1.768,5.791-1.529,5.791-1.529  c3.303,0.015,4.785,1.107,5.152,1.45C18.637,7.535,19.311,9.915,18.857,13.679z M12.998,6.497c-0.277,0-0.502,0.226-0.502,0.502  S12.721,7.5,12.998,7.5c1.379,0.002,2.498,1.118,2.5,2.5c0,0.276,0.223,0.501,0.5,0.501S16.5,10.276,16.5,10  C16.498,8.065,14.93,6.5,12.998,6.497z"/>
</symbol>
<symbol id="icon-messengers-vkontakte" viewBox="0 0 24 24">
	<title>Vkontakte</title>
	<circle cx="50%" cy="50%" r="11" fill="white" />
	<path fill="#4C75A3" d="M12,0C5.373,0,0,5.373,0,12s5.373,12,12,12s12-5.373,12-12S18.627,0,12,0z M18.361,15.96l-1.871,0.025 c0,0-0.4,0.08-0.93-0.283c-0.699-0.48-1.359-1.728-1.873-1.564c-0.521,0.164-0.504,1.287-0.504,1.287s0.004,0.24-0.115,0.369 c-0.129,0.139-0.383,0.166-0.383,0.166H11.85c0,0-1.848,0.111-3.473-1.582c-1.773-1.846-3.34-5.511-3.34-5.511 s-0.09-0.239,0.008-0.355c0.111-0.131,0.41-0.139,0.41-0.139l2.002-0.014c0,0,0.188,0.031,0.322,0.131 c0.111,0.082,0.174,0.234,0.174,0.234s0.324,0.817,0.752,1.557c0.836,1.445,1.225,1.761,1.508,1.605 c0.414-0.225,0.289-2.041,0.289-2.041s0.008-0.659-0.207-0.953C10.127,8.666,9.813,8.6,9.674,8.581 C9.561,8.566,9.746,8.305,9.984,8.188c0.361-0.177,0.996-0.187,1.748-0.179c0.584,0.006,0.754,0.042,0.982,0.098 c0.689,0.167,0.455,0.81,0.455,2.353c0,0.493-0.09,1.188,0.268,1.418c0.152,0.1,0.527,0.016,1.465-1.576 c0.445-0.754,0.777-1.642,0.777-1.642s0.072-0.158,0.186-0.226c0.117-0.069,0.273-0.048,0.273-0.048l2.104-0.013 c0,0,0.633-0.076,0.736,0.209c0.107,0.301-0.236,1-1.098,2.146c-1.412,1.882-1.568,1.706-0.396,2.794 c1.119,1.039,1.352,1.545,1.391,1.607C19.338,15.899,18.361,15.96,18.361,15.96z"/>
</symbol>
<symbol id="icon-messengers-facebook" viewBox="0 0 24 24">
	<title>Facebook</title>
	<circle cx="50%" cy="50%" r="11" fill="white" />
	<path fill="#0284FE" d="M11.26,10.167l-3.826,4.062l3.479-1.901l1.783,1.901l3.826-4.062l-3.436,1.901L11.26,10.167z M12,0  C5.373,0,0,5.372,0,12c0,6.627,5.373,12,12,12s12-5.373,12-12C24,5.372,18.627,0,12,0z M12,18.463c-0.693,0-1.361-0.094-1.992-0.268  L7,20v-3.485c-1.236-1.169-2-2.768-2-4.534C5,8.402,8.133,5.5,12,5.5c3.865,0,7,2.902,7,6.48C19,15.561,15.865,18.463,12,18.463z"/>
</symbol>
<symbol id="icon-messengers-skype" viewBox="0 0 24 24">
	<title>Skype</title>
	<circle cx="50%" cy="50%" r="11" fill="white" />
	<path fill="#00AFF0" d="M12,0C5.373,0,0,5.373,0,12s5.373,12,12,12s12-5.373,12-12S18.627,0,12,0z M15.074,19  c-0.756,0-1.463-0.215-2.061-0.584c-0.33,0.052-0.67,0.078-1.014,0.078c-3.588,0-6.496-2.907-6.496-6.494  c0-0.346,0.029-0.683,0.08-1.014C5.215,10.387,5,9.682,5,8.925C5,6.757,6.758,5,8.926,5c0.756,0,1.461,0.214,2.061,0.584  c0.33-0.052,0.67-0.08,1.014-0.08c3.588,0,6.496,2.908,6.496,6.496c0,0.345-0.029,0.683-0.08,1.014  C18.785,13.612,19,14.317,19,15.074C19,17.242,17.242,19,15.074,19z M14.592,11.858c-0.281-0.187-0.623-0.343-1.023-0.473  c-0.4-0.129-0.848-0.247-1.34-0.354c-0.391-0.092-0.674-0.161-0.844-0.21c-0.168-0.047-0.336-0.112-0.5-0.196  s-0.293-0.183-0.385-0.296c-0.09-0.113-0.135-0.245-0.135-0.401c0-0.25,0.131-0.463,0.406-0.646  c0.273-0.181,0.635-0.273,1.088-0.273c0.488-0.001,0.84,0.085,1.053,0.25c0.219,0.169,0.408,0.403,0.564,0.706  c0.125,0.216,0.238,0.371,0.348,0.469c0.113,0.101,0.275,0.148,0.48,0.148c0.23,0.001,0.426-0.081,0.578-0.243  c0.154-0.161,0.232-0.346,0.232-0.548c0-0.219-0.061-0.442-0.182-0.671s-0.313-0.446-0.574-0.652  c-0.262-0.207-0.588-0.372-0.982-0.497c-0.395-0.124-0.859-0.186-1.398-0.186c-0.672,0-1.26,0.093-1.76,0.28  s-0.885,0.457-1.15,0.809C8.803,9.225,8.67,9.628,8.67,10.078c0,0.473,0.125,0.871,0.377,1.192c0.252,0.317,0.592,0.569,1.018,0.753  s0.951,0.344,1.58,0.48c0.469,0.099,0.842,0.192,1.119,0.28c0.277,0.087,0.502,0.213,0.674,0.377  c0.172,0.162,0.256,0.37,0.256,0.632c0,0.329-0.156,0.602-0.479,0.824c-0.32,0.222-0.74,0.334-1.26,0.334  c-0.379,0-0.682-0.055-0.91-0.165c-0.23-0.11-0.408-0.251-0.533-0.419c-0.127-0.171-0.248-0.384-0.357-0.64  c-0.092-0.221-0.203-0.388-0.338-0.503s-0.301-0.173-0.492-0.173c-0.236,0-0.436,0.074-0.59,0.222  c-0.152,0.146-0.232,0.325-0.232,0.531c0,0.35,0.129,0.709,0.379,1.075c0.25,0.365,0.576,0.659,0.977,0.878  c0.564,0.306,1.281,0.457,2.146,0.457c0.721,0,1.346-0.111,1.873-0.334s0.932-0.531,1.207-0.927s0.414-0.842,0.412-1.338  c0-0.411-0.08-0.762-0.238-1.049C15.098,12.281,14.877,12.045,14.592,11.858z"/>
</symbol>
<symbol id="icon-messengers-email" viewBox="0 0 24 24">
	<title>E-mail</title>
	<circle cx="50%" cy="50%" r="11" fill="white" />
	<path fill="#A65CAC" d="M12,0C5.373,0,0,5.373,0,12s5.373,12,12,12s12-5.373,12-12S18.627,0,12,0z M18.99,6.98L12,12.646L5.008,6.98  H18.99z M19,16.98H5V8.475l7,5.673l7-5.672V16.98z"/>
</symbol>
<symbol id="icon-messengers-instagram" viewBox="0 0 24 24">
	<title>Instagram</title>
	<circle cx="50%" cy="50%" r="11" fill="white" />
	<path fill="#F6523C" d="M12,10.5c-0.828,0-1.5,0.672-1.5,1.5s0.672,1.5,1.5,1.5s1.5-0.672,1.5-1.5S12.828,10.5,12,10.5z M15,7H9
	C7.896,7,7,7.896,7,9v6c0,1.104,0.896,2,2,2h6c1.104,0,2-0.896,2-2V9C17,7.896,16.104,7,15,7z M12,15c-1.656,0-3-1.344-3-3
	s1.344-3,3-3s3,1.344,3,3S13.656,15,12,15z M16,10h-2V8h2V10z M12,0C5.373,0,0,5.373,0,12s5.373,12,12,12s12-5.373,12-12
	S18.627,0,12,0z M19,16c0,1.657-1.343,3-3,3H8c-1.657,0-3-1.343-3-3V8c0-1.657,1.343-3,3-3h8c1.657,0,3,1.343,3,3V16z"/>
</symbol>


<symbol id="icon-messengers-mask-whatsapp" viewBox="0 0 24 24">
	<title>Whatsapp</title>
	<path d="M15.594,13.28c-0.197-0.098-1.162-0.574-1.344-0.638c-0.18-0.067-0.352-0.044-0.486,0.146  c-0.191,0.267-0.379,0.538-0.527,0.7c-0.119,0.127-0.314,0.143-0.479,0.074c-0.217-0.091-0.83-0.306-1.584-0.975  c-0.582-0.521-0.979-1.168-1.096-1.362c-0.113-0.199-0.01-0.314,0.082-0.422c0.1-0.122,0.195-0.211,0.293-0.325  c0.1-0.115,0.154-0.175,0.219-0.31c0.066-0.131,0.02-0.266-0.029-0.366c-0.047-0.1-0.443-1.066-0.607-1.461  C9.906,8.029,9.807,8.018,9.607,8.008C9.531,8.004,9.457,8.002,9.383,8c-0.26,0-0.529,0.076-0.691,0.244  C8.492,8.447,8,8.919,8,9.887c0,0.969,0.705,1.906,0.801,2.038c0.1,0.129,1.379,2.146,3.363,2.97  c1.553,0.643,2.012,0.584,2.367,0.508c0.516-0.111,1.162-0.492,1.326-0.954c0.162-0.46,0.162-0.853,0.113-0.936  C15.924,13.429,15.795,13.381,15.594,13.28z M12,0C5.373,0,0,5.373,0,12s5.373,12,12,12s12-5.373,12-12S18.627,0,12,0z M12,19  c-1.357,0-2.619-0.393-3.691-1.061L5,19l1.094-3.253C5.404,14.663,5,13.38,5,12c0-3.866,3.133-7,7-7  c0.012,0,0.023,0.002,0.035,0.002C12.049,5.002,12.061,5,12.072,5c1.885,0,3.592,0.767,4.828,2.005C18.195,8.275,19,10.043,19,12  C19,15.866,15.865,19,12,19z"/>
</symbol>
<symbol id="icon-messengers-mask-telegram" viewBox="0 0 24 24">
	<title>Telegram</title>
	<path d="M15.439,8.379c-2.5,1.596-6.939,4.43-6.939,4.43l0.98,3.231l0.219-2.046c0,0,3.781-3.413,5.939-5.357  c0.063-0.058,0.07-0.154,0.02-0.221C15.605,8.35,15.51,8.333,15.439,8.379z M12,0C5.373,0,0,5.372,0,12c0,6.627,5.373,12,12,12  s12-5.373,12-12C24,5.372,18.627,0,12,0z M15.791,17.465c-0.047,0.225-0.207,0.409-0.422,0.491  c-0.215,0.081-0.457,0.048-0.645-0.085c-1.184-0.842-3.268-2.369-3.268-2.369s-1.096,1.035-1.805,1.704  c-0.125,0.119-0.305,0.165-0.473,0.121s-0.297-0.173-0.352-0.336c-0.441-1.3-1.289-3.858-1.289-3.858s-1.813-0.574-3.193-0.988  C4.146,12.085,4.008,11.906,4,11.7c-0.006-0.207,0.121-0.394,0.316-0.468c3.078-1.139,10.611-3.965,13.057-4.871  c0.158-0.057,0.336-0.026,0.465,0.082c0.129,0.109,0.188,0.279,0.152,0.443C17.529,9.053,16.299,15.083,15.791,17.465z"/>
</symbol>
<symbol id="icon-messengers-mask-viber" viewBox="0 0 24 24">
	<title>Viber</title>
	<path d="M14.072,13.53c-0.219-0.161-0.57-0.378-0.768-0.489c-0.352-0.197-0.711-0.073-0.859,0.12l-0.309,0.387  c-0.156,0.197-0.4,0.165-0.465,0.151c-0.455-0.111-0.938-0.391-1.434-0.86c-0.502-0.474-0.807-0.969-0.912-1.483l-0.01-0.034  c-0.029-0.211,0.008-0.309,0.096-0.454l0.016-0.013c0.209-0.189,0.596-0.42,0.646-0.64c0.152-0.381-0.506-1.177-0.6-1.317  c0,0-0.48-0.62-0.65-0.738c-0.184-0.15-0.467-0.236-0.756-0.063L8.055,8.107C7.229,8.653,6.93,8.968,7.012,9.437l0.041,0.188  c0.42,1.291,1.229,2.668,2.434,3.894c1.191,1.211,2.48,1.937,3.75,2.438c0.332,0.107,0.674,0.015,1.023-0.278l0.006-0.005  c0.27-0.246,0.484-0.509,0.643-0.792l0.002-0.006c0.154-0.298,0.102-0.581-0.127-0.772C14.783,14.102,14.305,13.703,14.072,13.53z   M11.998,9.5c0.828,0,1.498,0.672,1.5,1.499c0,0.276,0.223,0.499,0.5,0.499s0.5-0.223,0.5-0.499c0-1.382-1.121-2.5-2.5-2.5  c-0.277,0-0.502,0.223-0.502,0.501C11.496,9.276,11.721,9.5,11.998,9.5z M12,0C5.373,0,0,5.372,0,12s5.373,12,12,12s12-5.372,12-12  S18.627,0,12,0z M18.857,13.679c-0.439,3.651-3.146,4.003-3.625,4.162c-0.207,0.068-2.029,0.529-4.396,0.33  c-0.262,0.306-0.607,0.711-0.859,0.985c-0.459,0.501-0.74,0.966-1.219,0.814c-0.395-0.124-0.373-0.735-0.373-0.735l0.002-1.511  l-0.004-0.001c-3.465-0.99-3.412-4.641-3.373-6.59C5.049,9.186,5.42,7.613,6.477,6.54c1.898-1.768,5.791-1.529,5.791-1.529  c3.303,0.015,4.785,1.107,5.152,1.45C18.637,7.535,19.311,9.915,18.857,13.679z M12.998,6.497c-0.277,0-0.502,0.226-0.502,0.502  S12.721,7.5,12.998,7.5c1.379,0.002,2.498,1.118,2.5,2.5c0,0.276,0.223,0.501,0.5,0.501S16.5,10.276,16.5,10  C16.498,8.065,14.93,6.5,12.998,6.497z"/>
</symbol>
<symbol id="icon-messengers-mask-vkontakte" viewBox="0 0 24 24">
	<title>Vkontakte</title>
	<path d="M12,0C5.373,0,0,5.373,0,12s5.373,12,12,12s12-5.373,12-12S18.627,0,12,0z M18.361,15.96l-1.871,0.025 c0,0-0.4,0.08-0.93-0.283c-0.699-0.48-1.359-1.728-1.873-1.564c-0.521,0.164-0.504,1.287-0.504,1.287s0.004,0.24-0.115,0.369 c-0.129,0.139-0.383,0.166-0.383,0.166H11.85c0,0-1.848,0.111-3.473-1.582c-1.773-1.846-3.34-5.511-3.34-5.511 s-0.09-0.239,0.008-0.355c0.111-0.131,0.41-0.139,0.41-0.139l2.002-0.014c0,0,0.188,0.031,0.322,0.131 c0.111,0.082,0.174,0.234,0.174,0.234s0.324,0.817,0.752,1.557c0.836,1.445,1.225,1.761,1.508,1.605 c0.414-0.225,0.289-2.041,0.289-2.041s0.008-0.659-0.207-0.953C10.127,8.666,9.813,8.6,9.674,8.581 C9.561,8.566,9.746,8.305,9.984,8.188c0.361-0.177,0.996-0.187,1.748-0.179c0.584,0.006,0.754,0.042,0.982,0.098 c0.689,0.167,0.455,0.81,0.455,2.353c0,0.493-0.09,1.188,0.268,1.418c0.152,0.1,0.527,0.016,1.465-1.576 c0.445-0.754,0.777-1.642,0.777-1.642s0.072-0.158,0.186-0.226c0.117-0.069,0.273-0.048,0.273-0.048l2.104-0.013 c0,0,0.633-0.076,0.736,0.209c0.107,0.301-0.236,1-1.098,2.146c-1.412,1.882-1.568,1.706-0.396,2.794 c1.119,1.039,1.352,1.545,1.391,1.607C19.338,15.899,18.361,15.96,18.361,15.96z"/>
</symbol>
<symbol id="icon-messengers-mask-facebook" viewBox="0 0 24 24">
	<title>Facebook</title>
	<path d="M11.26,10.167l-3.826,4.062l3.479-1.901l1.783,1.901l3.826-4.062l-3.436,1.901L11.26,10.167z M12,0  C5.373,0,0,5.372,0,12c0,6.627,5.373,12,12,12s12-5.373,12-12C24,5.372,18.627,0,12,0z M12,18.463c-0.693,0-1.361-0.094-1.992-0.268  L7,20v-3.485c-1.236-1.169-2-2.768-2-4.534C5,8.402,8.133,5.5,12,5.5c3.865,0,7,2.902,7,6.48C19,15.561,15.865,18.463,12,18.463z"/>
</symbol>
<symbol id="icon-messengers-mask-skype" viewBox="0 0 24 24">
	<title>Skype</title>
	<path d="M12,0C5.373,0,0,5.373,0,12s5.373,12,12,12s12-5.373,12-12S18.627,0,12,0z M15.074,19  c-0.756,0-1.463-0.215-2.061-0.584c-0.33,0.052-0.67,0.078-1.014,0.078c-3.588,0-6.496-2.907-6.496-6.494  c0-0.346,0.029-0.683,0.08-1.014C5.215,10.387,5,9.682,5,8.925C5,6.757,6.758,5,8.926,5c0.756,0,1.461,0.214,2.061,0.584  c0.33-0.052,0.67-0.08,1.014-0.08c3.588,0,6.496,2.908,6.496,6.496c0,0.345-0.029,0.683-0.08,1.014  C18.785,13.612,19,14.317,19,15.074C19,17.242,17.242,19,15.074,19z M14.592,11.858c-0.281-0.187-0.623-0.343-1.023-0.473  c-0.4-0.129-0.848-0.247-1.34-0.354c-0.391-0.092-0.674-0.161-0.844-0.21c-0.168-0.047-0.336-0.112-0.5-0.196  s-0.293-0.183-0.385-0.296c-0.09-0.113-0.135-0.245-0.135-0.401c0-0.25,0.131-0.463,0.406-0.646  c0.273-0.181,0.635-0.273,1.088-0.273c0.488-0.001,0.84,0.085,1.053,0.25c0.219,0.169,0.408,0.403,0.564,0.706  c0.125,0.216,0.238,0.371,0.348,0.469c0.113,0.101,0.275,0.148,0.48,0.148c0.23,0.001,0.426-0.081,0.578-0.243  c0.154-0.161,0.232-0.346,0.232-0.548c0-0.219-0.061-0.442-0.182-0.671s-0.313-0.446-0.574-0.652  c-0.262-0.207-0.588-0.372-0.982-0.497c-0.395-0.124-0.859-0.186-1.398-0.186c-0.672,0-1.26,0.093-1.76,0.28  s-0.885,0.457-1.15,0.809C8.803,9.225,8.67,9.628,8.67,10.078c0,0.473,0.125,0.871,0.377,1.192c0.252,0.317,0.592,0.569,1.018,0.753  s0.951,0.344,1.58,0.48c0.469,0.099,0.842,0.192,1.119,0.28c0.277,0.087,0.502,0.213,0.674,0.377  c0.172,0.162,0.256,0.37,0.256,0.632c0,0.329-0.156,0.602-0.479,0.824c-0.32,0.222-0.74,0.334-1.26,0.334  c-0.379,0-0.682-0.055-0.91-0.165c-0.23-0.11-0.408-0.251-0.533-0.419c-0.127-0.171-0.248-0.384-0.357-0.64  c-0.092-0.221-0.203-0.388-0.338-0.503s-0.301-0.173-0.492-0.173c-0.236,0-0.436,0.074-0.59,0.222  c-0.152,0.146-0.232,0.325-0.232,0.531c0,0.35,0.129,0.709,0.379,1.075c0.25,0.365,0.576,0.659,0.977,0.878  c0.564,0.306,1.281,0.457,2.146,0.457c0.721,0,1.346-0.111,1.873-0.334s0.932-0.531,1.207-0.927s0.414-0.842,0.412-1.338  c0-0.411-0.08-0.762-0.238-1.049C15.098,12.281,14.877,12.045,14.592,11.858z"/>
</symbol>
<symbol id="icon-messengers-mask-email" viewBox="0 0 24 24">
	<title>E-mail</title>
	<path d="M12,0C5.373,0,0,5.373,0,12s5.373,12,12,12s12-5.373,12-12S18.627,0,12,0z M18.99,6.98L12,12.646L5.008,6.98  H18.99z M19,16.98H5V8.475l7,5.673l7-5.672V16.98z"/>
</symbol>
<symbol id="icon-messengers-mask-instagram" viewBox="0 0 24 24">
	<title>Instagram</title>
<path d="M12,10.5c-0.828,0-1.5,0.672-1.5,1.5s0.672,1.5,1.5,1.5s1.5-0.672,1.5-1.5S12.828,10.5,12,10.5z M15,7H9
	C7.896,7,7,7.896,7,9v6c0,1.104,0.896,2,2,2h6c1.104,0,2-0.896,2-2V9C17,7.896,16.104,7,15,7z M12,15c-1.656,0-3-1.344-3-3
	s1.344-3,3-3s3,1.344,3,3S13.656,15,12,15z M16,10h-2V8h2V10z M12,0C5.373,0,0,5.373,0,12s5.373,12,12,12s12-5.373,12-12
	S18.627,0,12,0z M19,16c0,1.657-1.343,3-3,3H8c-1.657,0-3-1.343-3-3V8c0-1.657,1.343-3,3-3h8c1.657,0,3,1.343,3,3V16z"/>
</symbol>
<symbol id="icon-dropdown-triangle-normal" viewBox="0 0 11 8">
	<title>Dropdown Triangle 11x8</title>
	<polygon points="5.5 8 0 0 11 0 5.5 8"/>
</symbol>

<symbol id="icon-dropdown-triangle-small" viewBox="0 0 6 4">
	<title>Dropdown Triangle 6x4</title>
	<polygon points="3 4 0 0 6 0 3 4"/>
</symbol>

<symbol id="icon-dropdown-arrow-normal" viewBox="0 0 11 7.24">
	<title>Dropdown Arrow 11x8</title>
	<polygon points="0 2.23 5.51 7.24 11 2.24 11 0.01 5.51 5 0 0 0 0 0 2.23"/>
</symbol>

<symbol id="icon-dropdown-arrow-small" viewBox="0 0 6 3.95">
	<title>Dropdown Arrow 6x4</title>
	<polygon points="0 1.22 3 3.95 6 1.22 6 0.01 3 2.73 0 0 0 0 0 1.22"/>
</symbol>
</defs>
</svg>
