<?xml version="1.0"?>
<svg xmlns="http://www.w3.org/2000/svg" xmlns:xlink="http://www.w3.org/1999/xlink" xmlns:svgjs="http://svgjs.com/svgjs" version="1.1" width="512" height="512" x="0" y="0" viewBox="0 0 479 479.99553" style="enable-background:new 0 0 512 512" xml:space="preserve" class=""><g><path xmlns="http://www.w3.org/2000/svg" d="m168.496094 191.996094c-8.835938 0-16-7.164063-16-16 0-4.417969-3.578125-8-8-8h-48c-4.417969 0-8 3.582031-8 8 0 8.835937-7.160156 16-16 16-4.417969 0-8 3.582031-8 8v48h16v-41.007813c11.261718-2.933593 20.054687-11.730469 22.984375-22.992187h34.035156c2.929687 11.261718 11.722656 20.058594 22.980469 22.992187v41.007813h16v-48c0-4.417969-3.578125-8-8-8zm0 0" fill="#ec1d24" data-original="#000000" style="" class=""/><path xmlns="http://www.w3.org/2000/svg" d="m426.898438 48.363281-152-48c-1.5625-.484375-3.238282-.484375-4.800782 0l-152 48c-3.332031 1.046875-5.601562 4.136719-5.601562 7.632813v32c0 4.417968 3.582031 8 8 8h16v48h-72.796875c-13.027344.242187-23.402344 10.972656-23.203125 24v77.101562l-38.148438 45.777344c-1.199218 1.4375-1.851562 3.25-1.851562 5.121094v176c0 4.417968 3.582031 8 8 8h96c4.421875 0 8-3.582032 8-8v-8.800782c18.613281-3.824218 31.980468-20.199218 32-39.199218v-24h32.800781c13.027344-.242188 23.402344-10.976563 23.199219-24v-56h216c4.421875 0 8-3.582032 8-8v-32c0-4.417969-3.578125-8-8-8h-8v-176h16c4.421875 0 8-3.582032 8-8v-32c0-3.496094-2.265625-6.585938-5.597656-7.632813zm-274.402344 47.632813h16v48h-16zm208 0v144h-32v-80c0-4.417969-3.578125-8-8-8h-96c-4.417969 0-8 3.582031-8 8v80h-16v-72c.0625-10.175782-6.375-19.257813-16-22.570313v-49.429687zm-48 144h-80v-72h80zm-184 184c0 13.253906-10.742188 24-24 24-4.417969 0-8 3.582031-8 8v8h-80v-165.105469l24-28.800781v57.90625h20.167968c2.125 0 4.15625-.84375 5.65625-2.34375l34.121094-34.082032 5.601563 5.601563c5.550781 5.609375 8.046875 13.558594 6.710937 21.335937-.894531 4.800782-3.222656 9.214844-6.679687 12.664063l-39.199219 39.199219c-1.503906 1.488281-2.359375 3.507812-2.378906 5.625v24c0 13.253906-10.742188 24-24 24v16c22.082031-.027344 39.976562-17.921875 40-40h48zm-24-152c0-8.835938 7.164062-16 16-16 8.839844 0 16 7.164062 16 16 0 8.835937-7.160156 16-16 16-.476563-.035156-.949219-.09375-1.421875-.175782-.570313-.65625-1.105469-1.335937-1.71875-1.960937l-5.601563-5.601563c-1.847656-1.816406-4.113281-3.15625-6.601562-3.894531-.421875-1.417969-.640625-2.886719-.65625-4.367187zm80 104c.152344 4.171875-3.03125 7.714844-7.199219 8h-96.800781v-4.6875l16-16v12.6875h48c4.421875 0 8-3.582032 8-8 0-8.835938 7.164062-16 16-16 4.421875 0 8-3.582032 8-8v-48h-16v41.007812c-11.257813 2.933594-20.050782 11.730469-22.980469 22.992188h-37.707031l17.546875-17.542969c5.703125-5.710937 9.5625-13.007813 11.070312-20.9375v-.128906c1.058594-6.0625.71875-12.289063-1-18.199219 12.726563-2.832031 22.460938-13.101562 24.613281-25.960938 2.148438-12.859374-3.71875-25.738281-14.832031-32.554687-11.117187-6.816406-25.253906-6.207031-35.742187 1.539063-10.488282 7.742187-15.226563 21.078124-11.984375 33.703124-.132813.121094-.285157.210938-.421875.34375l-31.710938 31.738282h-.851562v-144c-.152344-4.171875 3.035156-7.714844 7.203125-8h113.597656c4.167969.285156 7.351563 3.828125 7.199219 8zm224-72h-208v-16h208zm-208-32v-16h192v16zm192-32h-16v-144h16zm24-160h-288v-18.136719l144-45.472656 144 45.472656zm0 0" fill="#ec1d24" data-original="#000000" style="" class=""/><path xmlns="http://www.w3.org/2000/svg" d="m248.496094 47.996094c0 13.253906 10.746094 24 24 24 13.257812 0 24-10.746094 24-24s-10.742188-24-24-24c-13.253906 0-24 10.746094-24 24zm32 0c0 4.417968-3.578125 8-8 8-4.417969 0-8-3.582032-8-8 0-4.417969 3.582031-8 8-8 4.421875 0 8 3.582031 8 8zm0 0" fill="#ec1d24" data-original="#000000" style="" class=""/></g></svg>
