<?xml version="1.0" standalone="no"?>
<!DOCTYPE svg PUBLIC "-//W3C//DTD SVG 20010904//EN"
 "http://www.w3.org/TR/2001/REC-SVG-20010904/DTD/svg10.dtd">
<svg version="1.0" xmlns="http://www.w3.org/2000/svg"
 width="1024.000000pt" height="1002.000000pt" viewBox="0 0 1024.000000 1002.000000"
 preserveAspectRatio="xMidYMid meet">

<g transform="translate(0.000000,1002.000000) scale(0.100000,-0.100000)"
fill="#000000" stroke="none">
<path d="M5180 9034 c-272 -48 -379 -99 -685 -322 -201 -146 -558 -405 -665
-482 -154 -111 -392 -283 -455 -330 -27 -20 -102 -74 -165 -120 -63 -46 -137
-100 -165 -120 -27 -21 -192 -140 -365 -265 -173 -126 -427 -310 -565 -410
-137 -100 -317 -230 -400 -290 -184 -132 -260 -198 -342 -294 -164 -192 -253
-437 -253 -694 0 -203 -18 -141 476 -1657 69 -212 184 -565 256 -785 71 -220
193 -593 270 -830 77 -236 158 -486 180 -555 92 -286 151 -398 293 -549 149
-161 329 -262 568 -323 l92 -23 2045 0 2045 0 94 24 c293 73 514 225 673 459
97 143 86 114 503 1397 70 215 183 563 252 775 69 212 133 410 144 440 10 30
73 224 139 430 163 501 225 694 266 820 115 352 72 692 -125 983 -91 135 -193
227 -491 442 -151 109 -297 215 -325 235 -27 20 -167 122 -310 225 -143 103
-282 205 -310 225 -46 34 -343 250 -715 518 -80 58 -176 128 -215 157 -38 28
-128 93 -200 145 -172 124 -430 312 -585 425 -309 227 -397 275 -609 326 -83
20 -291 34 -351 23z m-202 -851 c-21 -2 -55 -2 -75 0 -21 2 -4 4 37 4 41 0 58
-2 38 -4z m-119 -7 c-2 -2 -87 -5 -189 -8 -102 -3 -158 -2 -125 2 65 7 321 12
314 6z m401 -5 c26 -5 -12 -6 -90 -3 -74 3 -137 6 -139 8 -8 7 184 3 229 -5z
m-815 -22 c-72 -16 -94 -29 -98 -57 l-4 -27 -2 26 c0 15 5 31 12 36 20 16 70
31 102 31 26 0 25 -1 -10 -9z m658 4 c-13 -2 -33 -2 -45 0 -13 2 -3 4 22 4 25
0 35 -2 23 -4z m319 -8 c35 -8 129 -19 209 -25 378 -28 510 -98 706 -374 41
-58 63 -81 67 -71 4 11 22 15 65 15 68 0 81 -12 81 -73 0 -37 -12 -47 -58 -47
-25 0 -24 -3 29 -53 64 -60 97 -117 106 -184 3 -27 10 -54 16 -61 5 -7 8 -15
5 -18 -3 -3 -18 16 -32 41 -15 25 -34 45 -42 45 -8 0 -12 5 -9 10 4 7 14 6 28
-1 20 -10 21 -10 6 5 -17 18 -44 13 -53 -10 -3 -9 -1 -12 4 -9 6 3 10 4 10 2
0 -10 -32 -67 -41 -72 -14 -9 -11 -25 6 -25 16 0 19 -19 8 -71 l-6 -33 -12 34
c-12 34 -13 32 -18 -50 -3 -47 -5 -102 -4 -123 1 -38 1 -38 18 -16 l17 22 21
-48 c23 -51 18 -65 -21 -65 -11 0 -18 -8 -18 -19 0 -16 -10 -21 -47 -27 -27
-4 -61 -7 -78 -6 -160 10 -296 -7 -350 -42 l-24 -16 2 50 c1 27 6 45 10 41 5
-5 38 0 73 11 35 10 108 25 162 33 l97 14 -89 -5 c-49 -2 -119 -11 -154 -19
-36 -9 -67 -13 -70 -10 -3 2 -9 35 -13 72 -24 201 -44 281 -80 327 -11 14 -17
26 -14 26 4 0 2 7 -5 15 -18 22 -54 18 -76 -7 -10 -12 -13 -18 -7 -14 7 4 -2
-16 -19 -45 l-33 -52 -925 5 c-509 2 -819 2 -690 -1 129 -3 541 -7 914 -9 374
-1 682 -4 684 -7 2 -2 -3 -32 -12 -67 -8 -35 -20 -123 -26 -195 -6 -73 -13
-139 -16 -148 -5 -12 -25 -15 -94 -15 -51 0 -92 -4 -95 -10 -5 -8 -12 -7 -22
2 -13 10 -122 14 -504 16 -465 3 -488 2 -482 -15 5 -17 5 -17 -8 -1 -13 16
-30 17 -196 10 -99 -4 -179 -4 -177 -1 2 4 -34 9 -81 10 -135 6 -142 23 -137
311 l3 168 29 15 c28 15 30 19 30 75 l0 60 788 2 787 3 19 38 c28 57 32 112
11 143 l-17 27 -157 -6 c-165 -7 -309 -26 -380 -52 -65 -23 -700 -22 -735 1
-23 14 -81 25 -208 39 -32 4 -58 11 -58 16 0 5 8 9 18 9 13 0 14 2 3 9 -10 7
-11 13 -2 30 12 21 16 21 289 21 152 0 509 5 792 11 571 13 561 12 579 77 14
48 14 176 0 225 -13 47 -39 60 -159 76 -47 7 -100 19 -118 27 -18 9 -50 21
-70 29 -50 18 -28 18 50 0z m-816 -4 c-3 -4 -42 -12 -87 -15 -45 -4 -91 -12
-103 -17 -15 -7 -7 -8 29 -4 282 28 920 34 945 9 8 -8 -100 -13 -402 -18 -227
-3 -459 -9 -515 -12 -90 -6 -103 -4 -103 9 0 18 44 32 137 46 81 12 105 12 99
2z m65 -651 l309 0 0 25 c0 14 5 25 10 25 6 0 10 -11 10 -24 l0 -23 290 5
c160 3 290 2 290 -1 0 -3 -5 -18 -12 -32 l-11 -25 -393 0 c-311 0 -392 3 -389
13 4 9 -23 12 -115 12 -89 0 -120 -3 -120 -12 0 -10 -62 -13 -276 -13 l-275 0
3 28 3 27 178 -4 177 -4 1 29 2 29 4 -27 4 -28 310 0z m1249 -160 c8 -5 11
-10 5 -10 -5 0 -17 5 -25 10 -8 5 -10 10 -5 10 6 0 17 -5 25 -10z m744 -106
c3 -8 2 -12 -4 -9 -6 3 -10 10 -10 16 0 14 7 11 14 -7z m-80 -10 c18 -17 39
-54 34 -58 -24 -18 -54 -36 -60 -36 -5 0 -8 25 -8 55 0 57 8 66 34 39z m-657
-39 c12 -8 27 -31 33 -51 11 -34 10 -38 -14 -63 l-27 -26 -5 23 c-4 12 -10 22
-15 22 -4 0 -10 15 -12 33 -3 22 -4 15 -5 -20 -2 -60 -12 -66 -41 -25 -19 28
-19 29 -1 69 16 35 26 44 60 52 3 0 15 -6 27 -14z m706 -56 c4 -15 -1 -22 -19
-30 -49 -18 -57 -9 -22 28 26 28 34 29 41 2z m-95 -58 c3 -16 -1 -22 -10 -19
-7 3 -15 15 -16 27 -3 16 1 22 10 19 7 -3 15 -15 16 -27z m102 -3 c0 -32 -19
-98 -29 -98 -9 0 -41 65 -41 85 0 7 12 18 28 23 39 15 42 14 42 -10z m-796
-20 c22 -31 20 -40 -6 -36 -17 2 -23 10 -24 31 -1 33 10 35 30 5z m136 -7 c0
-20 -6 -30 -19 -34 -29 -7 -33 2 -14 34 22 37 33 37 33 0z m618 -90 c-6 -30
-25 -20 -36 17 -17 56 -15 61 13 27 14 -16 24 -36 23 -44z m-688 35 c0 -14 -4
-27 -9 -30 -10 -7 -20 23 -14 42 8 21 23 13 23 -12z m-51 -24 c6 -11 5 -30 -4
-55 -24 -71 -33 -65 -42 28 -6 66 -6 67 15 56 12 -6 26 -19 31 -29z m123 -26
c-2 -26 -7 -57 -12 -69 -8 -21 -8 -21 -20 8 -23 59 -24 87 -4 102 29 21 39 10
36 -41z m664 -44 c-17 -16 -18 -16 -5 5 7 12 15 20 18 17 3 -2 -3 -12 -13 -22z
m-757 -14 c2 19 21 14 22 -5 1 -12 4 -9 8 7 8 24 8 24 24 -14 21 -47 21 -55 2
-62 -8 -4 -15 -12 -15 -19 0 -16 -25 -26 -46 -18 -12 5 -15 16 -10 52 5 42 4
43 -5 13 -5 -18 -14 -30 -19 -27 -14 9 -12 30 7 71 17 35 18 35 24 13 4 -13 7
-18 8 -11z m-1389 -107 c0 -14 -24 -31 -44 -31 -18 0 -56 26 -56 39 0 3 22 4
50 3 27 -2 50 -7 50 -11z m1457 -66 c-15 -14 -36 -25 -45 -25 -9 1 -3 7 14 14
18 8 35 19 38 25 4 6 10 11 14 11 4 0 -6 -12 -21 -25z m-1500 -11 c-3 -3 -12
-4 -19 -1 -8 3 -5 6 6 6 11 1 17 -2 13 -5z m1194 -12 c-7 -2 -18 1 -23 6 -8 8
-4 9 13 5 13 -4 18 -8 10 -11z m187 -9 c-32 -2 -84 -2 -115 0 -32 2 -6 3 57 3
63 0 89 -1 58 -3z m-223 -434 c145 -15 155 -18 155 -44 0 -12 -11 -34 -25 -50
-21 -22 -32 -26 -58 -21 -153 28 -530 38 -636 17 -155 -30 -196 -97 -84 -135
26 -9 109 -25 184 -36 407 -60 557 -153 460 -287 -53 -73 -225 -144 -426 -174
-139 -21 -738 -18 -868 4 -55 10 -108 22 -118 28 -18 9 -18 11 6 59 29 57 29
57 150 35 135 -24 499 -40 608 -27 146 18 217 50 217 97 0 39 -52 57 -290 100
-203 37 -274 58 -342 98 -183 107 45 274 451 332 58 8 124 16 146 19 59 6 366
-4 470 -15z m-1397 -15 c12 -4 22 -12 22 -18 0 -11 -307 -554 -367 -648 l-23
-38 -190 0 c-105 0 -190 4 -190 9 0 19 372 658 396 679 24 21 34 22 177 22 84
0 162 -3 175 -6z m3116 0 c34 -13 9 -78 -41 -103 -14 -7 -99 -11 -240 -11
-161 0 -223 -3 -235 -12 -8 -7 -52 -78 -98 -158 -46 -80 -118 -206 -161 -280
l-77 -135 -186 -3 c-150 -2 -186 0 -186 11 0 11 170 315 286 512 13 22 24 46
24 53 0 9 -52 12 -229 12 -174 0 -230 3 -234 13 -7 20 22 67 56 87 31 19 55
20 669 20 350 0 643 -3 652 -6z m1051 -15 c15 -15 137 -262 276 -561 28 -59
48 -112 44 -118 -4 -7 -194 -10 -557 -10 l-551 0 18 20 c10 11 44 35 74 53
l56 32 231 5 c235 5 264 10 264 46 0 15 -182 398 -200 419 -15 18 -106 20
-163 4 -31 -8 -192 -127 -309 -228 -13 -11 -115 -94 -228 -185 l-204 -166
-109 0 c-60 0 -107 4 -105 9 3 10 16 20 348 276 135 104 295 227 355 274 194
150 193 150 522 148 190 -2 225 -4 238 -18z m-6021 -76 c24 -49 78 -162 121
-253 42 -91 84 -173 93 -182 20 -24 59 -23 100 2 19 12 125 90 235 174 111 84
250 189 310 234 71 54 125 86 159 97 55 16 198 21 198 7 0 -9 -72 -65 -465
-362 -104 -79 -236 -179 -292 -222 -153 -117 -156 -118 -393 -118 l-198 0 -26
31 c-14 17 -26 34 -26 38 0 5 -42 96 -94 202 -154 321 -198 418 -191 429 4 6
84 10 215 10 l210 0 44 -87z m3176 -884 c0 -6 -9 -24 -20 -39 -18 -26 -24 -28
-53 -19 -42 12 -139 12 -171 -1 -42 -15 -31 -37 33 -66 78 -34 98 -56 85 -92
-6 -18 -28 -36 -68 -57 -57 -29 -65 -30 -213 -33 -184 -4 -191 -3 -167 37 l17
29 112 -5 c109 -6 155 3 155 28 0 5 -34 25 -74 45 -98 46 -109 83 -40 129 65
42 124 54 267 55 93 0 137 -4 137 -11z m510 6 c0 -3 -10 -19 -22 -35 l-22 -30
-127 0 c-121 0 -129 -1 -143 -22 -9 -12 -16 -26 -16 -30 0 -5 57 -8 126 -8
l125 0 -21 -30 -21 -30 -129 0 c-125 0 -128 -1 -144 -25 -9 -13 -16 -29 -16
-35 0 -6 44 -10 120 -10 l121 0 -16 -30 -16 -30 -210 0 c-165 0 -209 3 -203
13 4 6 50 78 103 159 l96 148 208 0 c114 0 207 -2 207 -5z m468 -18 c84 -45
-5 -145 -148 -166 l-44 -6 54 -60 54 -60 -84 -3 -85 -3 -51 57 -51 58 -38 -57
-38 -57 -79 0 c-44 0 -78 3 -76 8 2 4 48 76 103 160 l100 153 175 -3 c143 -3
181 -7 208 -21z m267 -53 c12 -39 25 -75 29 -82 4 -7 55 19 145 74 l139 85 74
-3 73 -3 -60 -38 c-165 -105 -456 -277 -468 -277 -12 0 -108 275 -107 308 0
10 19 12 77 10 l76 -3 22 -71z m675 71 c0 -2 -45 -74 -101 -160 l-101 -155
-80 0 -80 0 19 28 c10 16 56 88 103 160 l85 132 78 0 c42 0 77 -2 77 -5z m650
-17 l35 -16 -49 -22 c-44 -20 -55 -21 -99 -11 -105 24 -238 6 -317 -44 -44
-28 -60 -52 -60 -90 0 -20 8 -29 35 -41 41 -17 150 -18 228 -3 51 11 60 10 77
-6 11 -10 20 -22 20 -26 0 -17 -144 -39 -262 -40 -143 -1 -200 11 -241 52 -25
26 -29 35 -24 66 12 69 95 132 236 178 70 23 88 25 231 22 116 -2 164 -7 190
-19z m540 17 c0 -4 -7 -19 -15 -35 l-16 -30 -132 0 -133 0 -17 -30 -18 -30
125 0 c69 0 126 -2 126 -5 0 -3 -7 -17 -16 -30 -16 -24 -19 -25 -144 -25
l-129 0 -20 -29 c-12 -16 -21 -32 -21 -35 0 -3 57 -6 126 -6 l125 0 -21 -30
-21 -30 -205 0 c-112 0 -204 3 -204 7 0 4 46 76 101 160 l102 153 203 0 c112
0 204 -2 204 -5z m-6052 -21 c12 -3 22 -10 22 -15 0 -26 -50 -33 -205 -30
-144 2 -166 1 -218 -19 -96 -36 -114 -99 -40 -136 32 -16 62 -19 198 -19 158
0 160 0 163 -22 5 -32 -25 -37 -213 -38 -200 0 -283 20 -341 82 -82 88 39 176
286 207 48 6 320 -2 348 -10z m322 11 c0 -3 -29 -52 -65 -108 -36 -57 -65
-108 -65 -115 0 -9 49 -12 189 -12 110 0 192 -4 196 -10 3 -5 -9 -17 -27 -27
-29 -16 -65 -18 -282 -21 -136 -2 -255 -1 -262 2 -12 5 -11 12 5 43 43 82 147
229 171 240 24 12 140 18 140 8z m600 1 c0 -3 -28 -48 -62 -102 -58 -91 -61
-97 -44 -110 48 -34 259 -31 341 5 63 28 79 43 127 118 29 47 48 65 78 77 36
14 130 23 130 12 0 -14 -121 -189 -142 -205 -60 -48 -260 -91 -418 -91 -142 0
-280 39 -280 79 0 44 101 188 145 207 28 12 125 20 125 10z m1090 -11 c37 -19
46 -49 25 -81 -9 -14 -15 -27 -13 -28 2 -1 15 -10 31 -19 54 -34 28 -89 -61
-130 -43 -19 -67 -21 -309 -25 -236 -3 -263 -2 -263 12 0 26 129 223 158 242
51 34 105 43 255 43 113 1 155 -3 177 -14z m4232 -575 c50 -14 88 -64 88 -115
0 -34 -47 -184 -311 -990 -43 -132 -97 -298 -120 -370 -47 -147 -67 -186 -104
-203 -20 -9 -771 -12 -3096 -12 -3328 0 -3105 -4 -3141 52 -8 13 -24 52 -36
88 -11 36 -84 261 -162 500 -255 783 -288 885 -295 908 -15 51 32 124 91 142
43 13 7040 12 7086 0z m-5583 -1995 c26 -25 26 -26 29 -212 4 -200 -1 -229
-46 -263 -30 -25 -100 -26 -143 -4 -50 25 -59 63 -59 249 0 210 13 248 93 264
46 10 96 -3 126 -34z m549 19 c43 -28 52 -70 52 -249 0 -186 -9 -224 -59 -249
-16 -9 -50 -16 -75 -16 -36 0 -52 6 -78 29 l-33 29 0 205 c0 204 0 206 24 231
44 46 116 55 169 20z m585 4 c51 -20 57 -48 57 -253 0 -203 -6 -231 -57 -254
-37 -17 -105 -13 -140 8 -42 26 -53 82 -52 259 1 177 10 210 69 240 45 23 66
23 123 0z m-1425 -215 c2 -189 5 -223 17 -223 12 0 15 -15 15 -70 l0 -70 -40
0 c-38 0 -40 2 -40 30 l0 30 -90 0 -90 0 0 -30 c0 -28 -2 -30 -40 -30 l-40 0
0 65 c0 60 2 66 24 75 30 11 33 26 41 190 3 74 8 163 11 198 l6 63 111 -3 112
-3 3 -222z m587 187 l0 -35 -65 -5 -65 -5 -5 -220 -5 -220 -35 0 -35 0 -3 250
c-1 137 0 256 3 263 3 9 30 12 107 10 l103 -3 0 -35z m552 20 c33 -21 46 -62
41 -131 -3 -45 -10 -65 -23 -75 -18 -13 -18 -15 6 -40 20 -21 24 -38 27 -98 4
-81 -11 -126 -51 -147 -12 -7 -60 -13 -107 -13 l-85 -1 -3 264 -2 263 87 -4
c51 -2 97 -10 110 -18z m595 -4 c33 -22 48 -69 48 -151 0 -103 -41 -155 -122
-155 l-37 0 -3 -97 -3 -98 -37 -2 -38 -1 0 265 0 266 83 -5 c56 -3 91 -10 109
-22z m272 -8 c37 -219 66 -412 68 -448 l3 -45 -35 0 c-33 0 -35 2 -44 43 -6
28 -14 42 -25 43 -9 0 -30 2 -48 3 -34 4 -35 2 -48 -60 -5 -28 -10 -31 -36
-29 -16 1 -32 5 -35 8 -5 5 43 329 68 460 l11 57 58 0 c58 0 58 0 63 -32z
m856 -8 l0 -40 -65 0 -65 0 -2 -222 -3 -223 -37 -3 -38 -3 0 265 0 266 105 0
105 0 0 -40z m240 36 c0 -3 18 -118 40 -256 23 -138 38 -255 35 -260 -9 -14
-62 -12 -71 2 -4 7 -10 28 -14 47 -6 37 -2 36 -83 32 -19 -1 -25 -9 -33 -43
-8 -39 -12 -43 -41 -46 -23 -2 -33 1 -33 11 0 15 67 445 76 490 5 26 8 27 65
27 32 0 59 -2 59 -4z m331 -34 c27 -30 29 -38 29 -122 0 -49 -4 -100 -10 -115
-12 -30 -63 -55 -115 -55 l-35 0 0 -99 0 -99 -37 1 -38 2 -3 264 -2 263 91 -4
c88 -4 93 -6 120 -36z m266 -42 c6 -41 23 -151 38 -245 14 -93 27 -177 28
-185 1 -11 -8 -15 -38 -15 -32 0 -40 4 -43 20 -9 62 -10 63 -61 67 l-50 3 -8
-45 c-7 -40 -11 -45 -37 -48 -16 -2 -32 0 -36 5 -7 7 62 475 75 511 3 9 22 12
62 10 l58 -3 12 -75z m191 -37 l3 -113 44 0 45 0 0 115 0 115 40 0 40 0 -2
-262 -3 -263 -35 0 -35 0 -3 113 -3 112 -44 0 -44 0 -3 -112 -3 -113 -37 -3
c-31 -3 -38 0 -38 15 -1 13 0 450 0 506 0 5 17 7 38 5 l37 -3 3 -112z m462 77
l0 -40 -40 0 -40 0 0 -219 c0 -236 2 -229 -55 -227 l-30 1 -3 223 -2 222 -40
0 c-40 0 -40 0 -40 40 l0 40 125 0 125 0 0 -40z m111 -122 c1 -160 1 -162 16
-113 8 28 30 101 49 163 l35 112 44 0 45 0 0 -260 c0 -143 -3 -261 -7 -261 -5
-1 -20 -3 -35 -5 l-28 -3 -2 132 c-1 73 -1 147 0 165 3 67 -14 27 -58 -131
l-46 -162 -39 0 -40 0 -3 263 -2 262 35 0 35 0 1 -162z m484 -103 l0 -260 -40
0 -40 0 -3 108 c-3 103 -3 107 -25 107 -45 0 -52 -14 -57 -117 l-5 -98 -39 0
-39 0 2 93 c2 100 9 130 35 151 15 13 15 16 -6 38 -18 19 -23 38 -26 91 -5
117 37 154 168 150 l75 -3 0 -260z m-2519 74 c50 -47 35 -135 -29 -165 -94
-45 -189 69 -126 150 12 15 31 32 43 37 31 13 86 3 112 -22z m-2186 -619 c71
-36 98 -114 65 -184 -17 -36 -17 -37 5 -61 31 -33 38 -109 15 -158 -24 -51
-73 -78 -151 -85 -110 -8 -186 35 -205 116 -10 47 2 96 32 128 21 23 21 24 4
50 -25 38 -17 125 14 158 54 58 149 73 221 36z m426 -6 c66 -35 75 -62 75
-223 -1 -150 -6 -174 -43 -208 -71 -66 -193 -69 -268 -7 -16 14 -30 32 -30 40
0 7 18 26 40 40 37 25 42 26 58 11 48 -44 122 -24 122 33 0 28 -2 30 -27 23
-118 -33 -213 36 -213 155 0 63 30 109 90 140 55 29 136 27 196 -4z m1051 5
c73 -36 104 -128 67 -202 -9 -18 -45 -61 -80 -98 l-65 -65 78 0 78 1 3 -57 3
-58 -160 0 -160 0 -16 31 c-18 34 -19 32 46 104 157 174 174 200 149 230 -18
22 -60 18 -87 -7 l-24 -22 -44 24 c-25 14 -45 28 -45 32 0 17 58 73 95 89 53
24 109 24 162 -2z m1003 1 c71 -36 97 -114 61 -183 l-19 -38 23 -25 c54 -58
34 -168 -38 -213 -77 -47 -191 -35 -250 27 l-27 28 38 37 38 37 42 -21 c52
-26 95 -16 100 23 4 34 -14 46 -73 50 l-50 3 -3 48 -3 47 44 0 c50 0 70 16 65
52 -2 18 -10 24 -37 26 -19 2 -45 -2 -57 -9 -19 -10 -27 -8 -53 12 -48 38 -39
59 44 99 52 25 106 25 155 0z m1081 -3 c27 -15 53 -39 67 -63 21 -36 22 -48
20 -181 -3 -162 -11 -181 -88 -220 -81 -42 -186 -22 -243 46 -27 32 -27 34
-27 184 0 140 2 153 23 184 47 69 166 93 248 50z m421 -1 c21 -10 47 -33 59
-52 19 -31 20 -46 17 -186 -3 -171 -10 -191 -78 -225 -98 -47 -214 -17 -258
67 -21 41 -23 55 -20 175 4 153 16 184 88 222 53 28 133 27 192 -1z m-3222
-231 l0 -245 -55 0 -55 0 0 160 c0 88 -3 160 -6 160 -3 0 -14 -5 -25 -10 -15
-8 -25 -6 -49 12 -16 12 -30 26 -30 32 0 6 28 39 62 73 59 60 65 63 110 63
l48 0 0 -245z m370 105 c0 -133 1 -140 20 -140 18 0 20 -7 20 -55 0 -48 -2
-55 -20 -55 -17 0 -20 -7 -20 -50 l0 -50 -60 0 -60 0 0 50 0 50 -85 0 -85 0
-20 33 c-11 17 -20 37 -20 42 0 10 25 46 162 233 l61 82 54 0 53 0 0 -140z
m1074 108 l17 -33 -95 -210 -95 -210 -66 -3 c-79 -4 -81 -24 16 201 38 88 69
161 69 163 0 2 -40 4 -90 4 l-90 0 0 60 0 60 158 0 159 0 17 -32z m726 -23 l0
-55 -101 0 c-97 0 -100 -1 -97 -22 3 -19 9 -21 65 -22 66 -1 98 -17 136 -68
39 -53 32 -154 -15 -214 -41 -52 -139 -78 -201 -55 -26 10 -97 68 -97 80 0 4
19 21 42 39 39 30 43 31 64 17 32 -21 70 -19 94 5 24 24 25 48 4 78 -20 29
-81 30 -118 1 -14 -11 -36 -19 -48 -17 -22 3 -23 6 -26 146 l-3 142 151 0 150
0 0 -55z m1490 0 l0 -55 -95 0 c-93 0 -95 0 -95 -24 0 -22 3 -23 49 -18 99 9
171 -62 171 -169 0 -162 -185 -238 -307 -126 -32 29 -29 41 17 77 38 30 42 31
59 16 39 -36 111 -9 111 42 0 60 -61 79 -129 40 -66 -38 -71 -29 -71 132 l0
140 145 0 145 0 0 -55z m-2582 -237 l3 -58 -111 0 -110 0 0 60 0 61 108 -3
107 -3 3 -57z m1392 2 l0 -60 -110 0 -110 0 0 60 0 60 110 0 110 0 0 -60z"/>
<path d="M5795 8038 c-3 -8 1 -60 10 -116 8 -56 15 -119 15 -140 0 -22 5 -53
11 -70 10 -29 14 -31 122 -51 179 -33 187 -34 187 -25 0 38 -136 323 -179 374
-25 31 -33 34 -94 38 -51 3 -68 1 -72 -10z"/>
<path d="M5990 8024 c0 -3 22 -43 49 -88 60 -99 85 -149 126 -246 l32 -74 109
-28 c60 -15 111 -25 113 -22 16 16 -148 251 -239 342 -68 68 -190 143 -190
116z"/>
<path d="M5725 7640 c151 -18 352 -50 440 -70 169 -39 278 -60 282 -57 2 3
-53 19 -124 35 -274 65 -474 97 -653 106 -99 5 -96 4 55 -14z"/>
<path d="M5900 7520 c0 -5 7 -10 16 -10 8 0 12 5 9 10 -3 6 -10 10 -16 10 -5
0 -9 -4 -9 -10z"/>
<path d="M6468 7503 c7 -3 16 -2 19 1 4 3 -2 6 -13 5 -11 0 -14 -3 -6 -6z"/>
<path d="M5908 7468 c9 -9 15 -9 24 0 9 9 7 12 -12 12 -19 0 -21 -3 -12 -12z"/>
<path d="M6290 7476 c0 -2 7 -6 15 -10 8 -3 15 -1 15 4 0 6 -7 10 -15 10 -8 0
-15 -2 -15 -4z"/>
<path d="M6305 7430 c4 -6 11 -8 16 -5 14 9 11 15 -7 15 -8 0 -12 -5 -9 -10z"/>
<path d="M6133 7213 c64 -2 170 -2 235 0 64 1 11 3 -118 3 -129 0 -182 -2
-117 -3z"/>
<path d="M4437 7167 c-13 -11 -14 -18 -1 -67 22 -84 34 -85 34 -3 0 75 -7 90
-33 70z"/>
<path d="M5234 6898 c13 -10 17 -22 13 -37 -6 -25 14 -29 33 -5 16 18 0 38
-40 49 -24 7 -24 6 -6 -7z"/>
<path d="M5328 6900 c24 -10 29 -39 10 -58 -15 -15 -3 -16 23 -2 38 21 16 71
-30 69 -26 0 -26 0 -3 -9z"/>
<path d="M5921 6824 c0 -11 3 -14 6 -6 3 7 2 16 -1 19 -3 4 -6 -2 -5 -13z"/>
<path d="M6231 5151 c-12 -16 -21 -32 -21 -35 0 -3 23 -6 50 -6 65 0 123 23
118 47 -3 15 -15 19 -65 21 -58 3 -62 1 -82 -27z"/>
<path d="M4300 5155 l-23 -25 140 0 c111 0 143 3 153 15 23 28 0 35 -124 35
-118 0 -123 -1 -146 -25z"/>
<path d="M4230 5048 c-42 -46 -32 -50 129 -46 131 3 152 5 171 23 38 35 5 45
-147 45 -123 0 -134 -1 -153 -22z"/>
<path d="M2793 4409 c-52 -15 -63 -48 -63 -194 0 -152 11 -189 63 -203 47 -13
84 -4 107 26 18 22 20 40 20 173 0 139 -1 149 -22 172 -27 30 -61 38 -105 26z
m65 -179 c3 -145 -1 -170 -28 -170 -32 0 -40 32 -40 157 0 125 7 146 45 141
19 -3 20 -12 23 -128z"/>
<path d="M3324 4406 c-43 -19 -54 -58 -54 -196 0 -172 15 -200 103 -200 33 0
49 6 65 23 21 22 22 33 22 178 0 142 -2 157 -20 177 -12 12 -26 22 -33 22 -7
0 -21 2 -32 5 -11 3 -34 -1 -51 -9z m74 -193 c2 -134 2 -142 -18 -148 -11 -3
-24 -3 -30 0 -11 7 -14 277 -3 289 4 4 16 6 28 4 19 -3 20 -11 23 -145z"/>
<path d="M4634 4406 c-44 -19 -54 -58 -54 -198 0 -143 13 -182 65 -197 76 -21
125 18 125 101 0 48 -1 49 -27 46 -25 -3 -29 -8 -33 -48 -4 -40 -8 -45 -30
-45 l-25 0 0 145 0 145 25 0 c22 0 25 -5 28 -37 3 -35 6 -38 33 -38 27 0 29 2
29 39 0 74 -68 117 -136 87z"/>
<path d="M6183 4413 c-13 -2 -32 -16 -43 -30 -18 -23 -20 -40 -20 -174 0 -140
1 -149 23 -175 40 -46 137 -33 157 22 13 33 13 275 0 309 -9 23 -65 58 -87 54
-4 -1 -18 -4 -30 -6z m55 -65 c8 -8 12 -52 12 -133 0 -134 -9 -163 -48 -151
-21 7 -22 12 -22 145 0 76 3 141 7 144 10 11 38 8 51 -5z"/>
<path d="M6652 4409 c-50 -15 -62 -54 -62 -199 0 -134 13 -183 52 -196 41 -13
90 -5 115 17 22 22 23 28 23 179 0 149 -1 157 -22 178 -29 26 -64 33 -106 21z
m63 -199 l0 -145 -25 0 -25 0 -3 134 c-1 74 0 141 3 149 3 7 15 12 27 10 23
-3 23 -5 23 -148z"/>
<path d="M7685 4411 c-11 -5 -29 -19 -40 -31 -17 -19 -20 -39 -23 -155 -5
-180 14 -220 100 -217 82 2 98 35 98 200 0 141 -9 175 -55 196 -36 18 -50 19
-80 7z m60 -201 l0 -145 -25 0 -25 0 -3 134 c-1 74 0 141 3 149 3 7 15 12 27
10 23 -3 23 -5 23 -148z"/>
<path d="M2106 4388 c-10 -44 -56 -343 -56 -361 0 -11 8 -17 25 -17 20 0 25 6
31 35 6 33 9 35 44 35 39 0 50 -11 50 -51 0 -14 7 -19 30 -19 37 0 37 -8 0
216 -16 98 -30 180 -30 182 0 1 -20 2 -45 2 -38 0 -45 -3 -49 -22z m73 -224
c1 -15 -6 -23 -24 -26 -14 -3 -27 -3 -29 1 -4 7 11 120 21 161 5 19 9 9 19
-45 7 -38 13 -80 13 -91z"/>
<path d="M2300 4210 l0 -200 70 0 c62 0 74 3 95 25 21 20 25 34 25 83 0 44 -5
66 -20 85 -16 21 -17 27 -6 36 32 27 29 114 -6 150 -15 17 -31 21 -88 21 l-70
0 0 -200z m109 136 c7 -8 11 -32 9 -53 -3 -33 -7 -38 -30 -41 -27 -3 -28 -2
-28 46 0 27 3 52 7 55 11 11 30 8 42 -7z m9 -168 c7 -7 12 -31 12 -55 0 -32
-5 -45 -19 -53 -37 -19 -51 -3 -51 61 0 55 2 59 23 59 13 0 28 -5 35 -12z"/>
<path d="M2510 4386 c0 -21 6 -25 33 -28 l32 -3 3 -172 2 -173 30 0 30 0 2
173 3 172 30 0 c25 1 31 5 33 28 l3 27 -100 0 c-100 0 -101 0 -101 -24z"/>
<path d="M2968 4388 c-2 -13 -2 -103 0 -200 l3 -178 24 0 25 0 1 123 1 122 14
-65 c8 -36 18 -90 22 -120 7 -53 8 -55 39 -58 31 -3 31 -3 38 55 4 32 13 87
20 123 l13 65 1 -122 1 -123 30 0 30 0 0 200 0 200 -44 0 -43 0 -17 -117 c-10
-65 -20 -125 -23 -133 -3 -8 -16 44 -27 115 l-22 130 -41 3 c-37 3 -42 0 -45
-20z"/>
<path d="M3510 4210 l0 -200 70 0 c62 0 74 3 95 25 22 21 25 33 25 95 0 62 -3
74 -25 95 -18 19 -35 25 -65 25 l-41 0 3 53 3 52 53 3 c48 3 52 5 52 28 0 24
-1 24 -85 24 l-85 0 0 -200z m128 -75 c4 -54 -13 -77 -48 -68 -17 5 -20 14
-20 65 l0 59 33 -3 c31 -3 32 -5 35 -53z"/>
<path d="M3750 4209 l0 -200 32 3 32 3 35 130 36 130 3 -132 3 -133 29 0 30 0
0 201 0 200 -37 -3 -37 -3 -33 -109 c-18 -60 -35 -112 -38 -114 -3 -3 -5 47
-5 111 l0 117 -25 0 -25 0 0 -201z"/>
<path d="M4020 4263 c0 -160 -5 -193 -26 -193 -9 0 -14 -11 -14 -30 0 -23 5
-30 19 -30 64 0 75 27 81 200 l5 145 25 0 25 0 3 -172 2 -173 30 0 30 0 0 200
0 200 -90 0 -90 0 0 -147z"/>
<path d="M4250 4210 l0 -200 35 0 c32 0 35 3 45 43 25 93 60 210 65 215 3 3 5
-54 5 -126 l0 -132 25 0 25 0 0 200 0 200 -34 0 -34 0 -33 -117 -34 -117 -3
117 -3 117 -29 0 -30 0 0 -200z"/>
<path d="M4945 4378 c-23 -135 -55 -336 -55 -350 0 -12 8 -18 24 -18 24 0 36
16 36 51 0 15 7 19 39 19 40 0 51 -11 51 -51 0 -15 7 -19 34 -19 29 0 33 3 30
23 -2 12 -12 74 -23 137 -10 63 -22 137 -26 164 -10 73 -12 76 -61 76 -41 0
-43 -2 -49 -32z m70 -180 l7 -58 -30 0 -29 0 8 58 c5 31 12 73 15 92 l7 35 8
-35 c4 -19 11 -61 14 -92z"/>
<path d="M5124 4393 c37 -116 83 -299 79 -309 -3 -8 -16 -17 -29 -20 -17 -4
-24 -13 -24 -30 0 -20 5 -24 33 -24 62 1 82 34 116 195 12 55 26 116 31 135
17 58 13 70 -19 70 -33 0 -32 2 -56 -120 -10 -47 -18 -86 -20 -88 -2 -2 -9 22
-15 54 -7 32 -19 79 -26 106 -13 44 -18 48 -45 48 -24 0 -29 -3 -25 -17z"/>
<path d="M5370 4210 l0 -200 35 0 34 0 3 73 c2 43 7 70 13 68 6 -3 21 -34 35
-70 23 -61 28 -66 58 -69 17 -2 32 -1 32 1 0 2 -18 48 -40 102 -44 109 -47
125 -25 163 8 15 26 51 40 80 l25 52 -30 0 c-29 0 -34 -6 -70 -82 l-39 -83 -1
83 0 82 -35 0 -35 0 0 -200z"/>
<path d="M5610 4210 l0 -200 84 0 85 0 3 -27 c2 -22 8 -28 28 -28 23 0 25 4
28 49 2 37 -1 52 -12 58 -14 8 -16 35 -16 178 l0 170 -30 0 -30 0 0 -168 c0
-93 -2 -171 -5 -174 -3 -3 -19 -3 -36 1 l-30 6 -1 155 c0 85 -3 161 -5 168 -3
6 -18 12 -34 12 l-29 0 0 -200z"/>
<path d="M5880 4210 l0 -200 30 0 c27 0 30 4 49 68 11 37 28 94 38 127 l18 60
3 -127 3 -128 29 0 30 0 0 200 0 200 -37 0 -38 0 -35 -118 -35 -117 -3 118 -3
117 -24 0 -25 0 0 -200z"/>
<path d="M6350 4210 l0 -200 30 0 29 0 3 83 3 82 38 3 37 3 0 -85 0 -86 30 0
30 0 0 200 0 200 -30 0 -30 0 0 -85 0 -85 -40 0 -40 0 0 85 0 85 -30 0 -30 0
0 -200z"/>
<path d="M6830 4210 l0 -200 70 0 c62 0 74 3 95 25 21 20 25 34 25 83 0 44 -5
66 -20 85 -17 21 -17 27 -6 36 35 29 25 140 -14 161 -10 6 -48 10 -84 10 l-66
0 0 -200z m109 136 c7 -8 11 -32 9 -53 -3 -33 -7 -38 -30 -41 -27 -3 -28 -2
-28 46 0 27 3 52 7 55 11 11 30 8 42 -7z m10 -170 c7 -8 11 -34 9 -58 -3 -40
-5 -43 -35 -46 l-33 -3 0 60 c0 58 1 61 24 61 13 0 29 -6 35 -14z"/>
<path d="M7172 4387 c-18 -19 -22 -35 -22 -83 0 -36 6 -68 14 -79 11 -16 11
-23 1 -40 -7 -11 -15 -55 -17 -98 l-3 -78 30 3 c29 3 30 5 33 58 4 86 9 100
37 100 25 0 25 -1 25 -80 l0 -80 35 0 35 0 0 200 0 200 -73 0 c-64 0 -76 -3
-95 -23z m98 -92 c0 -56 -3 -65 -18 -65 -29 0 -42 21 -42 67 0 29 5 45 18 52
36 21 42 13 42 -54z"/>
<path d="M7380 4210 l0 -200 35 0 35 0 0 176 0 175 33 -3 32 -3 3 -172 2 -173
30 0 30 0 0 200 0 200 -100 0 -100 0 0 -200z"/>
<path d="M7860 4210 l0 -200 30 0 30 0 0 85 0 85 35 0 34 0 3 -82 3 -83 33 -3
32 -3 0 201 0 201 -32 -3 -33 -3 0 -83 0 -82 -37 0 -38 0 0 85 0 85 -30 0 -30
0 0 -200z"/>
<path d="M8106 4402 c-2 -4 -4 -93 -3 -198 l2 -189 33 -3 c20 -2 34 2 36 10 2
7 16 56 31 108 41 147 44 148 44 8 l1 -128 28 0 27 0 -2 192 c-2 106 -3 197
-3 201 0 5 -14 7 -32 5 -31 -3 -33 -6 -61 -98 -45 -145 -46 -145 -46 -17 l-1
117 -24 0 c-14 0 -27 -4 -30 -8z"/>
<path d="M8350 4210 l0 -200 34 0 c33 0 33 1 54 73 12 39 26 93 33 120 20 83
29 62 29 -67 l0 -126 25 0 25 0 0 200 0 200 -33 0 -34 0 -32 -107 c-18 -60
-34 -112 -36 -118 -2 -5 -4 43 -4 108 l-1 117 -30 0 -30 0 0 -200z"/>
<path d="M2374 3767 c-2 -7 -3 -140 -2 -297 l3 -285 91 0 c103 0 137 13 161
58 35 68 25 196 -18 236 l-21 19 21 29 c45 60 34 185 -19 225 -32 23 -208 36
-216 15z m166 -96 c5 -11 10 -38 10 -60 0 -48 -29 -84 -63 -79 -20 3 -22 9
-25 81 l-3 77 35 0 c25 0 38 -6 46 -19z m4 -243 c18 -26 21 -109 6 -139 -8
-14 -21 -19 -50 -19 l-40 0 0 90 0 90 34 0 c25 0 39 -7 50 -22z"/>
<path d="M2830 3479 l0 -299 40 0 39 0 3 128 3 127 53 3 52 3 0 -131 0 -131
43 3 42 3 0 295 0 295 -40 0 -40 1 -5 -126 -5 -125 -50 0 -50 0 -5 125 -5 125
-37 2 -38 1 0 -299z"/>
<path d="M3239 3756 c-4 -12 -13 -57 -18 -101 -6 -44 -24 -165 -40 -269 -17
-104 -28 -193 -25 -198 3 -4 19 -8 35 -8 33 0 49 27 49 81 0 29 0 29 58 29
l58 0 10 -52 c9 -51 11 -53 43 -56 18 -2 37 0 42 5 9 9 -72 560 -85 581 -5 9
-27 12 -63 11 -45 -2 -57 -6 -64 -23z m96 -323 l7 -63 -41 0 c-26 0 -41 5 -41
13 0 22 32 232 38 247 5 15 25 -85 37 -197z"/>
<path d="M3546 3718 c-3 -34 -6 -124 -7 -202 -1 -195 -8 -240 -36 -244 -20 -3
-23 -9 -23 -49 l0 -45 38 7 c45 8 78 37 91 79 5 17 13 120 16 229 l7 197 39 0
39 0 2 -252 3 -253 40 0 40 0 3 295 2 296 -124 1 -123 2 -7 -61z"/>
<path d="M3870 3479 l0 -299 39 0 c21 0 43 6 48 13 9 11 82 270 100 357 5 22
10 -38 13 -165 l5 -200 38 -3 37 -3 0 299 0 299 -44 -1 c-25 -1 -48 -4 -51 -8
-6 -6 -73 -232 -92 -308 -6 -25 -9 14 -13 140 l-5 174 -37 2 -38 2 0 -299z"/>
<path d="M4214 3771 c-2 -2 -4 -68 -4 -145 0 -114 3 -148 18 -176 28 -56 73
-69 150 -45 22 7 22 7 22 -109 l0 -117 43 3 42 3 0 295 0 295 -40 0 -40 0 -5
-135 c-3 -74 -9 -141 -13 -147 -11 -17 -62 -17 -75 0 -7 8 -13 69 -14 148 l-3
134 -38 0 c-21 0 -41 -2 -43 -4z"/>
<path d="M4554 3765 c-3 -6 -3 -138 -2 -295 l3 -285 45 0 45 0 50 187 c27 102
53 190 58 194 4 4 7 -81 7 -189 l0 -197 35 0 35 0 0 299 0 299 -45 -2 -46 -1
-28 -90 c-15 -49 -39 -130 -52 -180 l-24 -90 -3 182 -2 183 -36 -3 c-20 -1
-38 -7 -40 -12z"/>
<path d="M4906 3772 c-3 -3 -6 -137 -6 -299 l0 -293 39 0 c21 0 43 6 48 13 10
12 20 45 80 277 l28 105 5 -195 5 -195 38 -3 37 -3 0 299 0 299 -47 -1 -47 -1
-32 -101 c-18 -56 -40 -135 -51 -175 l-18 -74 -3 173 c-2 155 -4 172 -20 173
-9 0 -25 2 -34 4 -9 2 -19 0 -22 -3z"/>
<path d="M5374 3766 c-2 -6 -3 -139 -2 -296 l3 -285 42 -3 42 -3 21 73 c11 40
29 102 40 138 10 36 24 91 31 122 7 31 17 54 21 52 4 -3 5 -71 3 -152 -2 -81
-1 -166 2 -189 5 -41 7 -43 39 -43 l33 0 3 291 c2 160 1 294 -2 297 -3 4 -24
7 -48 7 l-44 0 -28 -90 c-16 -49 -40 -128 -52 -175 l-23 -85 -5 175 -5 175
-34 1 c-18 0 -35 -5 -37 -10z"/>
<path d="M5844 3765 c-3 -6 -3 -138 -2 -295 l3 -285 43 -3 42 -3 0 131 0 131
50 -3 51 -3 2 -125 2 -125 43 -3 42 -3 2 263 c0 145 1 279 1 298 0 35 0 35
-44 35 l-44 0 -3 -127 -3 -128 -49 0 -50 0 0 130 0 130 -41 -2 c-23 -2 -43 -8
-45 -13z"/>
<path d="M6270 3770 c-11 -7 -48 -215 -95 -543 l-6 -48 38 3 c37 3 38 4 47 56
l10 52 53 0 c34 0 55 -4 57 -12 2 -7 8 -31 12 -53 9 -39 10 -40 49 -40 34 0
40 3 38 20 -3 38 -56 391 -72 480 l-16 90 -51 2 c-27 1 -56 -2 -64 -7z m69
-230 c7 -52 14 -112 18 -132 l6 -38 -42 0 c-31 0 -41 4 -41 16 0 46 34 264 40
257 4 -4 13 -51 19 -103z"/>
<path d="M6693 3756 c-24 -20 -35 -40 -43 -82 -15 -70 -9 -84 33 -84 33 0 35
2 41 42 8 49 21 68 47 68 33 0 49 -28 49 -85 0 -44 -4 -57 -22 -69 -12 -9 -30
-16 -40 -16 -14 0 -18 -8 -18 -40 0 -36 3 -40 24 -40 37 0 56 -35 56 -102 0
-60 -16 -88 -49 -88 -28 0 -39 20 -43 75 l-3 50 -42 3 -43 3 0 -43 c0 -112 46
-168 135 -168 89 0 135 57 135 166 0 64 -10 101 -35 128 l-23 25 24 22 c28 26
41 107 25 165 -16 61 -50 87 -119 92 -51 4 -62 1 -89 -22z"/>
<path d="M7042 3766 c-5 -6 -14 -45 -20 -86 -7 -41 -25 -162 -42 -268 -39
-247 -39 -234 8 -230 36 3 37 4 46 56 l9 52 52 0 c56 0 65 -8 65 -55 0 -44 10
-55 51 -55 36 0 39 2 39 27 0 22 -46 333 -78 523 l-7 44 -57 2 c-33 1 -61 -3
-66 -10z m78 -252 c11 -71 20 -132 20 -136 0 -5 -18 -8 -40 -8 -37 0 -40 2
-40 28 0 34 32 253 37 249 1 -2 12 -62 23 -133z"/>
<path d="M7300 3478 l0 -299 43 3 42 3 5 102 c7 138 19 147 59 41 57 -150 55
-148 101 -148 22 0 40 2 40 5 0 2 -27 77 -60 166 l-61 161 57 122 c31 66 58
127 61 133 4 9 -7 12 -37 11 l-43 -1 -56 -121 -56 -120 -5 119 -5 119 -42 1
-43 1 0 -298z"/>
<path d="M7705 3770 c-5 -8 -82 -500 -87 -555 -3 -27 0 -30 31 -33 38 -4 51 9
51 50 0 51 8 58 65 58 l53 0 9 -52 8 -53 43 -3 c32 -2 42 0 42 12 0 17 -76
515 -86 558 -5 27 -7 28 -66 25 -33 -1 -61 -4 -63 -7z m80 -239 c8 -58 15
-117 15 -133 0 -26 -3 -28 -40 -28 -22 0 -40 4 -40 8 0 14 30 215 37 247 8 38
9 33 28 -94z"/>
<path d="M8024 3769 c-33 -17 -56 -66 -58 -123 l-1 -51 38 -3 c36 -3 37 -2 37
30 0 40 24 78 50 78 33 0 50 -28 50 -81 0 -54 -24 -89 -60 -89 -17 0 -20 -7
-20 -40 0 -36 3 -40 24 -40 14 0 32 -10 40 -22 22 -30 22 -131 0 -152 -39 -39
-84 -1 -84 71 l0 43 -40 0 -40 0 0 -55 c0 -108 42 -155 140 -155 45 0 56 4 85
33 27 27 34 43 39 92 9 72 -5 139 -33 169 l-21 22 21 20 c47 47 46 174 -1 227
-23 26 -35 31 -86 34 -32 1 -68 -2 -80 -8z"/>
<path d="M3130 2601 c-6 -11 -10 -88 -10 -180 0 -132 3 -162 16 -175 8 -9 22
-16 29 -16 7 0 21 7 29 16 13 13 16 43 16 175 0 92 -4 169 -10 180 -6 11 -21
19 -35 19 -14 0 -29 -8 -35 -19z"/>
<path d="M3702 2608 c-8 -8 -12 -63 -12 -179 0 -139 3 -170 16 -183 20 -20 38
-20 59 0 14 14 16 40 13 186 -2 137 -6 171 -18 178 -21 13 -44 12 -58 -2z"/>
<path d="M4301 2606 c-8 -9 -11 -67 -9 -186 3 -152 5 -174 21 -184 12 -8 22
-8 35 0 15 10 17 32 20 184 3 178 -2 200 -38 200 -10 0 -23 -6 -29 -14z"/>
<path d="M2805 2448 c-4 -90 -11 -173 -16 -185 -8 -22 -6 -23 41 -23 l50 0 0
185 0 185 -34 0 -34 0 -7 -162z"/>
<path d="M3990 2546 l0 -66 29 0 c40 0 53 20 49 77 -3 48 -3 48 -40 51 l-38 3
0 -65z"/>
<path d="M3990 2320 l0 -80 33 0 c46 0 57 15 57 80 0 65 -11 80 -57 80 l-33 0
0 -80z"/>
<path d="M4590 2520 c0 -89 0 -90 24 -90 40 0 56 25 56 86 0 71 -12 94 -50 94
l-30 0 0 -90z"/>
<path d="M4886 2463 c-21 -140 -22 -133 19 -133 28 0 35 4 35 20 0 23 -30 213
-34 218 -2 1 -11 -46 -20 -105z"/>
<path d="M6000 2564 c0 -5 -7 -52 -15 -104 -21 -133 -21 -130 20 -130 25 0 35
5 35 15 0 49 -39 263 -40 219z"/>
<path d="M6272 2523 c3 -86 3 -88 29 -91 40 -5 50 17 47 100 l-3 73 -38 3 -38
3 3 -88z"/>
<path d="M6571 2467 c-6 -51 -14 -103 -18 -115 -5 -20 -2 -22 37 -22 35 0 41
3 37 18 -3 9 -11 61 -18 115 -7 53 -15 97 -19 97 -4 0 -12 -42 -19 -93z"/>
<path d="M7760 2591 c-5 -11 -10 -36 -10 -56 0 -52 15 -75 50 -75 l30 0 0 75
0 75 -30 0 c-19 0 -33 -7 -40 -19z"/>
<path d="M3092 1784 c-26 -18 -28 -46 -6 -68 21 -21 57 -20 77 2 22 24 21 38
-3 62 -24 24 -38 25 -68 4z"/>
<path d="M3071 1591 c-24 -44 0 -81 53 -81 46 0 73 31 60 68 -8 23 -15 27 -56
30 -38 2 -49 -1 -57 -17z"/>
<path d="M3498 1783 c-19 -5 -32 -40 -26 -69 5 -26 43 -42 81 -35 29 6 32 11
35 46 5 55 -26 75 -90 58z"/>
<path d="M6643 1780 c-22 -9 -23 -14 -23 -133 0 -136 4 -147 56 -147 53 0 64
26 64 152 0 99 -2 108 -22 122 -25 18 -42 19 -75 6z"/>
<path d="M7050 1770 c-17 -17 -20 -33 -20 -123 0 -120 12 -147 64 -147 51 0
56 12 56 141 0 94 -3 121 -16 133 -21 22 -60 20 -84 -4z"/>
<path d="M4196 1685 c-9 -14 -23 -36 -32 -50 l-16 -25 41 0 41 0 0 50 c0 55
-10 63 -34 25z"/>
<path d="M921 5794 c0 -11 3 -14 6 -6 3 7 2 16 -1 19 -3 4 -6 -2 -5 -13z"/>
<path d="M9674 5700 c0 -58 1 -81 3 -52 2 28 2 76 0 105 -2 28 -3 5 -3 -53z"/>
<path d="M3338 783 c7 -3 16 -2 19 1 4 3 -2 6 -13 5 -11 0 -14 -3 -6 -6z"/>
<path d="M7248 783 c6 -2 18 -2 25 0 6 3 1 5 -13 5 -14 0 -19 -2 -12 -5z"/>
</g>
</svg>
